<svg width="108" height="76" viewBox="0 0 108 76" fill="none" xmlns="http://www.w3.org/2000/svg">
<path d="M6.74501 59.6193C6.8993 59.2445 7.26447 59 7.66969 59H100.812C101.226 59 101.598 59.2557 101.746 59.6429L107.481 74.6429C107.731 75.2976 107.248 76 106.547 76H1.49322C0.781437 76 0.297532 75.2774 0.568544 74.6193L6.74501 59.6193Z" fill="#88B9FF" fill-opacity="0.25"/>
<mask id="mask0_299_87" style="mask-type:luminance" maskUnits="userSpaceOnUse" x="48" y="0" width="11" height="5">
<path d="M49.3464 0H57.961C58.4049 0 58.7684 0.362241 58.7684 0.805328V4.02595C58.7684 4.46903 58.4052 4.83127 57.961 4.83127H49.3464C48.9026 4.83127 48.5391 4.46903 48.5391 4.02595V0.805328C48.5391 0.362588 48.9022 0 49.3464 0Z" fill="white"/>
</mask>
<g mask="url(#mask0_299_87)">
<path d="M58.7684 0H48.5391V4.83127H58.7684V0Z" fill="url(#paint0_linear_299_87)"/>
</g>
<path fill-rule="evenodd" clip-rule="evenodd" d="M49.3079 6.84444H58.0014C60.6312 6.84444 62.7826 8.99048 62.7826 11.614V27.5939C62.7826 28.9224 61.6928 30.0095 60.3609 30.0095H46.7619C45.5326 30.0095 44.5266 29.0061 44.5266 27.7798V11.6143C44.5266 8.99117 46.6781 6.84444 49.3079 6.84444Z" fill="#6B72FF"/>
<path fill-rule="evenodd" clip-rule="evenodd" d="M49.3079 6.84485H49.5253V4.83205H57.784V7.07385C59.7059 7.69285 61.106 9.49816 61.106 11.6144V27.5943C61.106 28.9228 60.0162 30.0099 58.6842 30.0099H46.7619C45.5326 30.0099 44.5266 29.0065 44.5266 27.7803V11.6147C44.5266 8.99158 46.6781 6.84519 49.3079 6.84519" fill="#9398FF"/>
<path d="M62.7826 14.2613H44.5266V23.4901H62.7826V14.2613Z" fill="#418FFB"/>
<path fill-rule="evenodd" clip-rule="evenodd" d="M47.6847 12.0628C48.2949 12.0628 48.794 12.5607 48.794 13.1693V24.5831C48.794 25.1917 48.2949 25.6896 47.6847 25.6896C47.0746 25.6896 46.5754 25.1917 46.5754 24.5831V13.1693C46.5754 12.5607 47.0746 12.0628 47.6847 12.0628Z" fill="#6B72FF"/>
<path d="M48.7937 14.2613H46.5754V23.4901H48.7937V14.2613Z" fill="#42ACFF"/>
<path fill-rule="evenodd" clip-rule="evenodd" d="M53.6531 15.3761C55.5789 15.3761 57.14 16.9333 57.14 18.8541C57.14 20.775 55.5789 22.3322 53.6531 22.3322C51.7274 22.3322 50.1663 20.775 50.1663 18.8541C50.1663 16.9333 51.7274 15.3761 53.6531 15.3761Z" fill="#42ACFF"/>
<path fill-rule="evenodd" clip-rule="evenodd" d="M53.0184 16.878H54.2888V18.2205H55.6347V19.4876H54.2888V20.8301H53.0184V19.4876H51.6726V18.2205H53.0184V16.878Z" fill="#DAF6E0"/>
<path d="M57.7868 4.83116H49.5281V5.52893H57.7868V4.83116Z" fill="#6B72FF"/>
<path fill-rule="evenodd" clip-rule="evenodd" d="M48.5424 3.61717H58.7717C58.9258 3.61717 59.0514 3.74278 59.0514 3.89614V4.55262C59.0514 4.70598 58.9254 4.83158 58.7717 4.83158H48.5424C48.3886 4.83158 48.2627 4.70598 48.2627 4.55262V3.89614C48.2627 3.74278 48.3886 3.61717 48.5424 3.61717Z" fill="#FF8686"/>
<path fill-rule="evenodd" clip-rule="evenodd" d="M49.6148 1.1626C49.7795 1.1626 49.9142 1.29722 49.9142 1.46169V3.6171H49.3154V1.46169C49.3154 1.29722 49.4502 1.1626 49.6148 1.1626Z" fill="#FF8686"/>
<path fill-rule="evenodd" clip-rule="evenodd" d="M50.9618 1.1626C51.1264 1.1626 51.2611 1.29722 51.2611 1.46169V3.6171H50.6624V1.46169C50.6624 1.29722 50.7971 1.1626 50.9618 1.1626Z" fill="#FF8686"/>
<path fill-rule="evenodd" clip-rule="evenodd" d="M52.316 1.1626C52.4806 1.1626 52.6154 1.29722 52.6154 1.46169V3.6171H52.0166V1.46169C52.0166 1.29722 52.1514 1.1626 52.316 1.1626Z" fill="#FF8686"/>
<path fill-rule="evenodd" clip-rule="evenodd" d="M53.6629 1.1626C53.8276 1.1626 53.9623 1.29722 53.9623 1.46169V3.6171H53.3635V1.46169C53.3635 1.29722 53.4983 1.1626 53.6629 1.1626Z" fill="#FF8686"/>
<path fill-rule="evenodd" clip-rule="evenodd" d="M55.0135 1.1626C55.1781 1.1626 55.3129 1.29722 55.3129 1.46169V3.6171H54.7141V1.46169C54.7141 1.29722 54.8489 1.1626 55.0135 1.1626Z" fill="#FF8686"/>
<path fill-rule="evenodd" clip-rule="evenodd" d="M56.3604 1.1626C56.5251 1.1626 56.6598 1.29722 56.6598 1.46169V3.6171H56.061V1.46169C56.061 1.29722 56.1958 1.1626 56.3604 1.1626Z" fill="#FF8686"/>
<path fill-rule="evenodd" clip-rule="evenodd" d="M57.711 1.1626C57.8757 1.1626 58.0104 1.29722 58.0104 1.46169V3.6171H57.4116V1.46169C57.4116 1.29722 57.5464 1.1626 57.711 1.1626Z" fill="#FF8686"/>
<path fill-rule="evenodd" clip-rule="evenodd" d="M64.0994 34.2596L71.0053 34.2465L71.0071 34.2472L74.4066 34.2537C74.622 34.2541 74.83 34.2208 75.0255 34.1583C75.8718 33.9106 76.4938 33.1264 76.492 32.2049L76.4694 20.5371L76.492 8.86943C76.4938 7.94787 75.8718 7.16371 75.0255 6.91597C74.83 6.85351 74.622 6.8202 74.4066 6.82055L71.0071 6.82714L71.0053 6.82784L64.0994 6.8143C62.9793 6.81222 62.0613 7.72442 62.0592 8.84133L62.0568 10.0568L62.0161 10.0714L62.0366 20.5371L62.0161 31.0029L62.0568 31.0175L62.0592 32.233C62.0613 33.3502 62.9793 34.2621 64.0994 34.2596Z" fill="#BDFAC9"/>
<path fill-rule="evenodd" clip-rule="evenodd" d="M63.973 10.0472L66.3099 8.7075C66.8908 8.3744 67.6387 8.57565 67.9726 9.15544C68.3065 9.73489 68.1048 10.4809 67.5235 10.814L65.187 12.1536C64.6061 12.4867 63.8582 12.2855 63.5243 11.7057C63.1903 11.1263 63.3921 10.3803 63.973 10.0472Z" fill="white"/>
<path fill-rule="evenodd" clip-rule="evenodd" d="M64.0545 10.195L65.223 9.52496L66.2676 11.3379L65.0995 12.0076C64.5996 12.2942 63.9557 12.1207 63.6684 11.6221C63.3811 11.1235 63.555 10.4812 64.0549 10.195" fill="#FF9696"/>
<path fill-rule="evenodd" clip-rule="evenodd" d="M66.3926 8.85476L65.2241 9.52443L66.2687 11.3374L67.4372 10.6677C67.937 10.3811 68.1106 9.73886 67.8236 9.2406C67.5363 8.742 66.8924 8.56851 66.3929 8.85511" fill="#76C5FB"/>
<path fill-rule="evenodd" clip-rule="evenodd" d="M64.3735 10.2795L65.3384 9.72612L65.5572 10.1057L64.5923 10.6591C64.4876 10.7192 64.3526 10.6827 64.2924 10.5783C64.2323 10.4739 64.2688 10.3396 64.3735 10.2795Z" fill="#F6AF46"/>
<path fill-rule="evenodd" clip-rule="evenodd" d="M66.2345 9.21264L65.3374 9.72686L65.5562 10.1064L66.453 9.59223C66.5577 9.5322 66.5938 9.39758 66.5337 9.29349C66.4735 9.18905 66.3385 9.15261 66.2342 9.21299" fill="#E6F8FF"/>
<path fill-rule="evenodd" clip-rule="evenodd" d="M63.9628 15.0236L66.2994 13.6839C66.8803 13.3508 67.6282 13.5524 67.9621 14.1318C68.296 14.7116 68.0943 15.4573 67.513 15.7904L65.1765 17.13C64.5956 17.4631 63.8477 17.2619 63.5138 16.6821C63.1798 16.1027 63.3816 15.3567 63.9628 15.0236Z" fill="white"/>
<path fill-rule="evenodd" clip-rule="evenodd" d="M63.9486 19.9992L66.2851 18.6596C66.866 18.3265 67.6139 18.5277 67.9479 19.1075C68.2818 19.687 68.0797 20.433 67.4988 20.7661L65.1623 22.1057C64.5813 22.4388 63.8335 22.2376 63.4995 21.6578C63.1656 21.0783 63.3677 20.3323 63.9486 19.9992Z" fill="white"/>
<path fill-rule="evenodd" clip-rule="evenodd" d="M63.9416 24.9748L66.2781 23.6352C66.859 23.3021 67.6069 23.5033 67.9409 24.0831C68.2748 24.6626 68.073 25.4082 67.4918 25.7417L65.1552 27.0813C64.574 27.4144 63.8265 27.2128 63.4925 26.6334C63.1586 26.0539 63.3603 25.3079 63.9416 24.9748Z" fill="white"/>
<path fill-rule="evenodd" clip-rule="evenodd" d="M64.0471 15.1702L65.2156 14.5006L66.2602 16.3132L65.0921 16.9828C64.5922 17.2694 63.9483 17.0959 63.6613 16.5973C63.374 16.0987 63.5479 15.4565 64.0478 15.1699" fill="#FF9696"/>
<path fill-rule="evenodd" clip-rule="evenodd" d="M64.0367 20.1462L65.2052 19.4762L66.2498 21.2891L65.0813 21.9588C64.5815 22.2454 63.9376 22.0719 63.6506 21.5733C63.3633 21.0747 63.5372 20.4324 64.0371 20.1462" fill="#FF9696"/>
<path fill-rule="evenodd" clip-rule="evenodd" d="M64.0262 25.1214L65.1947 24.4518L66.2393 26.2643L65.0708 26.9344C64.571 27.221 63.9271 27.0475 63.6401 26.5489C63.3528 26.0503 63.5267 25.408 64.0266 25.1214" fill="#FC8600"/>
<path fill-rule="evenodd" clip-rule="evenodd" d="M66.3818 13.8307L65.2134 14.5004L66.258 16.313L67.4264 15.6433C67.9263 15.3567 68.1002 14.7144 67.8129 14.2162C67.5256 13.7176 66.8817 13.5441 66.3818 13.8307Z" fill="#76C5FB"/>
<path fill-rule="evenodd" clip-rule="evenodd" d="M66.3713 18.8063L65.2029 19.476L66.2475 21.2889L67.4159 20.6189C67.9158 20.3323 68.0897 19.6904 67.8024 19.1918C67.5151 18.6932 66.8712 18.5197 66.3713 18.8063Z" fill="#76C5FB"/>
<path fill-rule="evenodd" clip-rule="evenodd" d="M66.3642 23.7822L65.1958 24.4519L66.2404 26.2645L67.4085 25.5945C67.9084 25.3079 68.0823 24.6656 67.795 24.1674C67.5076 23.6688 66.8638 23.4953 66.3642 23.7819" fill="#76C5FB"/>
<path fill-rule="evenodd" clip-rule="evenodd" d="M64.3661 15.2551L65.331 14.7017L65.5498 15.0813L64.5849 15.6347C64.4802 15.6948 64.3455 15.6583 64.2854 15.5542C64.2252 15.4498 64.2617 15.3152 64.3661 15.2551Z" fill="#F6AF46"/>
<path fill-rule="evenodd" clip-rule="evenodd" d="M64.3556 20.2313L65.3205 19.6782L65.5393 20.0578L64.5744 20.6112C64.4697 20.6712 64.3347 20.6348 64.2749 20.5304C64.2147 20.4259 64.2512 20.2913 64.3559 20.2313" fill="#F6AF46"/>
<path fill-rule="evenodd" clip-rule="evenodd" d="M64.3448 25.2072L65.3098 24.6538L65.5286 25.0334L64.5636 25.5865C64.4589 25.6465 64.3243 25.6101 64.2641 25.506C64.2039 25.4015 64.2405 25.2672 64.3452 25.2069" fill="#F6AF46"/>
<path fill-rule="evenodd" clip-rule="evenodd" d="M66.2274 14.1883L65.3303 14.7026L65.5491 15.0822L66.4462 14.5679C66.5509 14.5079 66.5875 14.3736 66.5273 14.2692C66.4671 14.1648 66.3321 14.1283 66.2274 14.1883Z" fill="#E6F8FF"/>
<path fill-rule="evenodd" clip-rule="evenodd" d="M66.2166 19.1638L65.3198 19.678L65.5386 20.0576L66.4357 19.5434C66.5404 19.4834 66.577 19.3487 66.5164 19.2446C66.4563 19.1402 66.3213 19.1041 66.2169 19.1638" fill="#E6F8FF"/>
<path fill-rule="evenodd" clip-rule="evenodd" d="M66.2099 24.1394L65.3127 24.6536L65.5315 25.0332L66.4287 24.519C66.5334 24.4589 66.5695 24.3247 66.5094 24.2202C66.4492 24.1158 66.3146 24.0797 66.2099 24.1394Z" fill="#E6F8FF"/>
<path fill-rule="evenodd" clip-rule="evenodd" d="M70.7331 10.0605L73.0696 8.72079C73.6505 8.38769 74.3984 8.58894 74.7324 9.16873C75.0663 9.74853 74.8645 10.4942 74.2833 10.8273L71.9468 12.1669C71.3658 12.5 70.618 12.2984 70.284 11.719C69.9501 11.1395 70.1518 10.3936 70.7331 10.0605Z" fill="white"/>
<path fill-rule="evenodd" clip-rule="evenodd" d="M70.8181 10.2074L71.9865 9.53737L73.0311 11.35L71.8627 12.0196C71.3628 12.3062 70.7189 12.1327 70.4316 11.6341C70.1443 11.1355 70.3182 10.4933 70.8181 10.207" fill="#FF9696"/>
<path fill-rule="evenodd" clip-rule="evenodd" d="M73.1554 8.86806L71.9873 9.53806L73.0319 11.3507L74.2 10.681C74.6999 10.3944 74.8738 9.75215 74.5865 9.25389C74.2991 8.75529 73.6553 8.5818 73.1554 8.8684" fill="#76C5FB"/>
<path fill-rule="evenodd" clip-rule="evenodd" d="M71.1366 10.2925L72.1015 9.73941L72.3203 10.119L71.3554 10.6724C71.2507 10.7325 71.1161 10.696 71.0559 10.5916C70.9957 10.4871 71.0322 10.3525 71.1366 10.2925Z" fill="#F6AF46"/>
<path fill-rule="evenodd" clip-rule="evenodd" d="M72.9976 9.22504L72.1008 9.73926L72.3196 10.1189L73.2167 9.60464C73.3214 9.54461 73.3576 9.41033 73.2974 9.30589C73.2373 9.20145 73.1023 9.16502 72.9979 9.22539" fill="#E6F8FF"/>
<path fill-rule="evenodd" clip-rule="evenodd" d="M70.7226 15.036L73.0591 13.6963C73.6401 13.3632 74.3879 13.5648 74.7219 14.1442C75.0558 14.7237 74.8541 15.4697 74.2728 15.8028L71.9363 17.1425C71.3554 17.4755 70.6075 17.2743 70.2735 16.6949C69.9396 16.1151 70.1413 15.3694 70.7223 15.0363" fill="white"/>
<path fill-rule="evenodd" clip-rule="evenodd" d="M70.7118 20.0125L73.0483 18.6729C73.6292 18.3398 74.3771 18.541 74.7111 19.1208C75.045 19.7003 74.8429 20.4462 74.262 20.7793L71.9254 22.119C71.3445 22.4521 70.5966 22.2509 70.2627 21.6711C69.9288 21.0916 70.1309 20.3456 70.7118 20.0125Z" fill="white"/>
<path fill-rule="evenodd" clip-rule="evenodd" d="M70.7048 24.9881L73.0413 23.6484C73.6222 23.3153 74.3701 23.5169 74.704 24.0963C75.038 24.6758 74.8359 25.4218 74.255 25.7549L71.9184 27.0945C71.3375 27.4276 70.5896 27.2264 70.2557 26.6466C69.9218 26.0671 70.1235 25.3212 70.7048 24.9881Z" fill="white"/>
<path fill-rule="evenodd" clip-rule="evenodd" d="M70.8072 15.1835L71.9757 14.5139L73.0203 16.3265L71.8518 16.9961C71.352 17.2827 70.7081 17.1092 70.4211 16.6106C70.1338 16.112 70.3077 15.4698 70.8072 15.1835Z" fill="#FF9696"/>
<path fill-rule="evenodd" clip-rule="evenodd" d="M70.8001 20.1591L71.9686 19.4895L73.0132 21.3021L71.8451 21.9717C71.3452 22.2583 70.7014 22.0848 70.414 21.5862C70.1267 21.0876 70.3006 20.4454 70.8005 20.1588" fill="#FF9696"/>
<path fill-rule="evenodd" clip-rule="evenodd" d="M70.7894 25.1351L71.9575 24.4651L73.0021 26.278L71.834 26.9477C71.3341 27.2343 70.6903 27.0608 70.4033 26.5622C70.116 26.0636 70.2899 25.4213 70.7897 25.1351" fill="#FC8600"/>
<path fill-rule="evenodd" clip-rule="evenodd" d="M73.1416 13.844L71.9731 14.514L73.0177 16.3266L74.1862 15.6566C74.6861 15.37 74.86 14.7277 74.5726 14.2295C74.2853 13.7309 73.6414 13.5574 73.1419 13.844" fill="#76C5FB"/>
<path fill-rule="evenodd" clip-rule="evenodd" d="M73.1345 18.8196L71.9661 19.4893L73.0107 21.3018L74.1791 20.6322C74.679 20.3456 74.8526 19.7033 74.5656 19.2051C74.2782 18.7065 73.6344 18.533 73.1349 18.8196" fill="#76C5FB"/>
<path fill-rule="evenodd" clip-rule="evenodd" d="M73.124 23.7948L71.9556 24.4645L73.0002 26.2774L74.1686 25.6078C74.6685 25.3212 74.8424 24.6789 74.5551 24.1807C74.2678 23.6821 73.6239 23.5086 73.124 23.7952" fill="#76C5FB"/>
<path fill-rule="evenodd" clip-rule="evenodd" d="M71.1262 15.2684L72.0911 14.715L72.3099 15.0946L71.3446 15.648C71.2399 15.7081 71.1053 15.6716 71.0451 15.5672C70.9849 15.4627 71.0215 15.3285 71.1262 15.2684Z" fill="#F6AF46"/>
<path fill-rule="evenodd" clip-rule="evenodd" d="M71.1184 20.244L72.0837 19.6906L72.3025 20.0702L71.3376 20.6236C71.2329 20.6836 71.0982 20.6472 71.0381 20.5431C70.9779 20.4387 71.0144 20.3044 71.1188 20.244" fill="#F6AF46"/>
<path fill-rule="evenodd" clip-rule="evenodd" d="M71.1082 25.2205L72.0731 24.6671L72.2919 25.0467L71.327 25.6001C71.2223 25.6601 71.0876 25.6237 71.0275 25.5193C70.9669 25.4148 71.0038 25.2802 71.1082 25.2205Z" fill="#F6AF46"/>
<path fill-rule="evenodd" clip-rule="evenodd" d="M72.9872 14.2008L72.0901 14.715L72.3089 15.0946L73.2057 14.5803C73.3104 14.5203 73.3469 14.386 73.2867 14.2816C73.2265 14.1772 73.0916 14.1407 72.9872 14.2008Z" fill="#E6F8FF"/>
<path fill-rule="evenodd" clip-rule="evenodd" d="M72.9798 19.1772L72.083 19.6915L72.3018 20.071L73.1989 19.5568C73.3036 19.4968 73.3402 19.3622 73.2796 19.2581C73.2194 19.1536 73.0845 19.1172 72.9798 19.1772Z" fill="#E6F8FF"/>
<path fill-rule="evenodd" clip-rule="evenodd" d="M72.9696 24.1528L72.0725 24.6671L72.2913 25.0466L73.1884 24.5324C73.2931 24.4724 73.3293 24.3381 73.2691 24.2337C73.2089 24.1292 73.0743 24.0928 72.9696 24.1528Z" fill="#E6F8FF"/>
<path fill-rule="evenodd" clip-rule="evenodd" d="M69.0997 8.10097C69.1973 8.10097 69.2765 8.18077 69.2765 8.27827L69.2293 32.5065C69.2293 32.6036 69.1494 32.6831 69.0518 32.6831C68.9542 32.6831 68.8747 32.6033 68.875 32.5058L68.9219 8.27758C68.9219 8.18008 69.0018 8.10097 69.0994 8.10097" fill="#B1CBEF"/>
<path fill-rule="evenodd" clip-rule="evenodd" d="M63.9416 30.0213L66.2781 28.6816C66.859 28.3486 67.6069 28.5498 67.9409 29.1296C68.2748 29.709 68.073 30.455 67.4918 30.7881L65.1552 32.1278C64.574 32.4609 63.8265 32.2593 63.4925 31.6799C63.1586 31.1004 63.3603 30.3544 63.9416 30.0213Z" fill="white"/>
<path fill-rule="evenodd" clip-rule="evenodd" d="M64.0262 30.1679L65.1947 29.4982L66.2393 31.3108L65.0708 31.9805C64.571 32.2671 63.9271 32.0936 63.6401 31.595C63.3528 31.0964 63.5267 30.4542 64.0266 30.1676" fill="#FC8600"/>
<path fill-rule="evenodd" clip-rule="evenodd" d="M66.3642 28.8284L65.1958 29.4984L66.2404 31.311L67.4085 30.641C67.9084 30.3544 68.0823 29.7121 67.795 29.2139C67.5076 28.7153 66.8638 28.5418 66.3642 28.8284Z" fill="#76C5FB"/>
<path fill-rule="evenodd" clip-rule="evenodd" d="M64.3448 30.2537L65.3098 29.7003L65.5286 30.0799L64.5636 30.6333C64.4589 30.6933 64.3243 30.6569 64.2641 30.5528C64.2039 30.4484 64.2405 30.3141 64.3452 30.2537" fill="#F6AF46"/>
<path fill-rule="evenodd" clip-rule="evenodd" d="M66.2099 29.1859L65.3127 29.7001L65.5315 30.0797L66.4287 29.5655C66.5334 29.5054 66.5695 29.3712 66.5094 29.2667C66.4492 29.1623 66.3146 29.1262 66.2099 29.1859Z" fill="#E6F8FF"/>
<path fill-rule="evenodd" clip-rule="evenodd" d="M70.7048 30.0345L73.0413 28.6949C73.6222 28.3618 74.3701 28.5634 74.704 29.1428C75.038 29.7223 74.8359 30.4683 74.255 30.8014L71.9184 32.141C71.3375 32.4741 70.5896 32.2729 70.2557 31.6931C69.9218 31.1136 70.1235 30.3676 70.7048 30.0345Z" fill="white"/>
<path fill-rule="evenodd" clip-rule="evenodd" d="M70.7894 30.1815L71.9575 29.5115L73.0021 31.3241L71.834 31.9938C71.3341 32.2804 70.6903 32.1069 70.4033 31.6083C70.116 31.1097 70.2899 30.4675 70.7897 30.1812" fill="#FC8600"/>
<path fill-rule="evenodd" clip-rule="evenodd" d="M73.124 28.842L71.9556 29.5117L73.0002 31.3243L74.1686 30.6546C74.6685 30.368 74.8424 29.7258 74.5551 29.2272C74.2678 28.7286 73.6239 28.5551 73.124 28.8417" fill="#76C5FB"/>
<path fill-rule="evenodd" clip-rule="evenodd" d="M71.1082 30.267L72.0731 29.7136L72.2919 30.0932L71.327 30.6466C71.2223 30.7066 71.0876 30.6702 71.0275 30.5661C70.9669 30.4617 71.0038 30.3274 71.1082 30.2673" fill="#F6AF46"/>
<path fill-rule="evenodd" clip-rule="evenodd" d="M72.9696 29.1993L72.0725 29.7135L72.2913 30.0931L73.1884 29.5789C73.2931 29.5189 73.3293 29.3846 73.2691 29.2802C73.2089 29.1757 73.0743 29.1393 72.9696 29.1993Z" fill="#E6F8FF"/>
<mask id="mask1_299_87" style="mask-type:luminance" maskUnits="userSpaceOnUse" x="46" y="21" width="40" height="50">
<path d="M46.6287 21.6433L81.6011 21.5701L86.0001 70.7742L51.0273 70.8471L46.6287 21.6433Z" fill="white"/>
</mask>
<g mask="url(#mask1_299_87)">
<path d="M86.0001 21.5701H46.6287V70.8471H86.0001V21.5701Z" fill="#BFC1FD"/>
</g>
<path fill-rule="evenodd" clip-rule="evenodd" d="M61.573 68.9493V61.3513C61.573 60.3329 62.4082 59.4998 63.4291 59.4998H80.2548C81.2757 59.4998 82.1109 60.3329 82.1109 61.3513V68.9493C82.1109 69.9677 81.2757 70.8008 80.2548 70.8008H63.4291C62.4082 70.8008 61.573 69.9677 61.573 68.9493Z" fill="#BDFAC9"/>
<path fill-rule="evenodd" clip-rule="evenodd" d="M63.2639 65.1494C63.2639 65.0238 63.3669 64.9211 63.4928 64.9211H80.4872C80.6131 64.9211 80.7161 65.0238 80.7161 65.1494C80.7161 65.275 80.6131 65.3777 80.4872 65.3777H63.4928C63.3669 65.3777 63.2639 65.275 63.2639 65.1494Z" fill="#B1CBEF"/>
<path fill-rule="evenodd" clip-rule="evenodd" d="M79.5127 62.4756C79.5127 63.2157 78.9113 63.8153 78.1693 63.8153C77.4274 63.8153 76.8259 63.2154 76.8259 62.4756C76.8259 61.7359 77.4274 61.1356 78.1693 61.1356C78.9113 61.1356 79.5127 61.7355 79.5127 62.4756Z" fill="#B1CBEF"/>
<path fill-rule="evenodd" clip-rule="evenodd" d="M79.3208 62.4753C79.3208 63.1099 78.8049 63.6241 78.1691 63.6241C77.5332 63.6241 77.0173 63.1099 77.0173 62.4753C77.0173 61.8407 77.5332 61.3261 78.1691 61.3261C78.8049 61.3261 79.3208 61.8407 79.3208 62.4753Z" fill="#FBCA0D"/>
<path fill-rule="evenodd" clip-rule="evenodd" d="M78.6001 63.541C78.4672 63.5944 78.3214 63.6242 78.1691 63.6242C77.5328 63.6242 77.0173 63.11 77.0173 62.4754C77.0173 62.0445 77.2553 61.6687 77.6073 61.4723C77.7405 61.4189 77.8859 61.389 78.0383 61.389C78.6745 61.389 79.19 61.9036 79.19 62.5379C79.19 62.9688 78.9521 63.3446 78.6001 63.541Z" fill="#FF9696"/>
<path fill-rule="evenodd" clip-rule="evenodd" d="M78.8231 63.1251C78.7866 63.1615 78.7264 63.1615 78.6899 63.1251L77.5197 61.9579C77.4828 61.9215 77.4832 61.8614 77.5197 61.825C77.5562 61.7886 77.6164 61.7882 77.6529 61.825L78.8231 62.9922C78.8596 63.0287 78.8596 63.0887 78.8231 63.1251Z" fill="#EA6301"/>
<path fill-rule="evenodd" clip-rule="evenodd" d="M79.5127 67.8243C79.5127 68.5644 78.9113 69.1643 78.1693 69.1643C77.4274 69.1643 76.8259 68.5644 76.8259 67.8243C76.8259 67.0842 77.4274 66.4843 78.1693 66.4843C78.9113 66.4843 79.5127 67.0842 79.5127 67.8243Z" fill="#B1CBEF"/>
<path fill-rule="evenodd" clip-rule="evenodd" d="M79.3208 67.8245C79.3208 68.4591 78.8049 68.9733 78.1691 68.9733C77.5332 68.9733 77.0173 68.4588 77.0173 67.8245C77.0173 67.1902 77.5332 66.6757 78.1691 66.6757C78.8049 66.6757 79.3208 67.1902 79.3208 67.8245Z" fill="#FBCA0D"/>
<path fill-rule="evenodd" clip-rule="evenodd" d="M78.6001 68.8905C78.4672 68.9439 78.3214 68.9738 78.1691 68.9738C77.5328 68.9738 77.0173 68.4592 77.0173 67.8249C77.0173 67.394 77.2553 67.0182 77.6073 66.8218C77.7405 66.7684 77.8859 66.7386 78.0383 66.7386C78.6745 66.7386 79.19 67.2528 79.19 67.8877C79.19 68.3187 78.9521 68.6941 78.6001 68.8908" fill="#FF9696"/>
<path fill-rule="evenodd" clip-rule="evenodd" d="M78.8231 68.4746C78.7866 68.5111 78.7264 68.5111 78.6899 68.4746L77.5197 67.3074C77.4828 67.2706 77.4832 67.211 77.5197 67.1745C77.5562 67.1381 77.6164 67.1378 77.6529 67.1745L78.8231 68.3418C78.8596 68.3782 78.8596 68.4382 78.8231 68.4746Z" fill="#EA6301"/>
<path fill-rule="evenodd" clip-rule="evenodd" d="M76.3505 62.4756C76.3505 63.2157 75.7491 63.8153 75.0071 63.8153C74.2652 63.8153 73.6641 63.2154 73.6641 62.4756C73.6641 61.7359 74.2655 61.1356 75.0071 61.1356C75.7488 61.1356 76.3505 61.7355 76.3505 62.4756Z" fill="#B1CBEF"/>
<path fill-rule="evenodd" clip-rule="evenodd" d="M76.1556 62.4753C76.1556 63.1099 75.6401 63.6241 75.0036 63.6241C74.367 63.6241 73.8518 63.1099 73.8518 62.4753C73.8518 61.8407 74.3673 61.3261 75.0036 61.3261C75.6398 61.3261 76.1556 61.8407 76.1556 62.4753Z" fill="#FBCA0D"/>
<path fill-rule="evenodd" clip-rule="evenodd" d="M75.4345 63.541C75.3013 63.5944 75.1559 63.6242 75.0036 63.6242C74.3673 63.6242 73.8518 63.11 73.8518 62.4754C73.8518 62.0445 74.0897 61.6687 74.4418 61.4723C74.575 61.4189 74.7204 61.389 74.8724 61.389C75.5086 61.389 76.0242 61.9036 76.0242 62.5379C76.0242 62.9688 75.7862 63.3446 75.4342 63.541" fill="#FF9696"/>
<path fill-rule="evenodd" clip-rule="evenodd" d="M75.658 63.1251C75.6214 63.1615 75.5613 63.1615 75.5247 63.1251L74.3546 61.9579C74.3177 61.9215 74.3177 61.8614 74.3546 61.825C74.3911 61.7886 74.4513 61.7882 74.4878 61.825L75.658 62.9922C75.6945 63.0287 75.6945 63.0887 75.658 63.1251Z" fill="#EA6301"/>
<path fill-rule="evenodd" clip-rule="evenodd" d="M76.3505 67.8243C76.3505 68.5644 75.7491 69.1643 75.0071 69.1643C74.2652 69.1643 73.6641 68.5644 73.6641 67.8243C73.6641 67.0842 74.2655 66.4843 75.0071 66.4843C75.7488 66.4843 76.3505 67.0842 76.3505 67.8243Z" fill="#B1CBEF"/>
<path fill-rule="evenodd" clip-rule="evenodd" d="M76.1556 67.8245C76.1556 68.4591 75.6401 68.9733 75.0036 68.9733C74.367 68.9733 73.8518 68.4588 73.8518 67.8245C73.8518 67.1902 74.3673 66.6757 75.0036 66.6757C75.6398 66.6757 76.1556 67.1902 76.1556 67.8245Z" fill="#FBCA0D"/>
<path fill-rule="evenodd" clip-rule="evenodd" d="M75.4345 68.8905C75.3013 68.9439 75.1559 68.9738 75.0036 68.9738C74.3673 68.9738 73.8518 68.4592 73.8518 67.8249C73.8518 67.394 74.0897 67.0182 74.4418 66.8218C74.575 66.7684 74.7204 66.7386 74.8724 66.7386C75.5086 66.7386 76.0242 67.2528 76.0242 67.8877C76.0242 68.3187 75.7862 68.6941 75.4342 68.8908" fill="#FF9696"/>
<path fill-rule="evenodd" clip-rule="evenodd" d="M75.658 68.4746C75.6214 68.5111 75.5613 68.5111 75.5247 68.4746L74.3546 67.3074C74.3177 67.2706 74.3177 67.211 74.3546 67.1745C74.3911 67.1381 74.4513 67.1378 74.4878 67.1745L75.658 68.3418C75.6945 68.3782 75.6945 68.4382 75.658 68.4746Z" fill="#EA6301"/>
<path fill-rule="evenodd" clip-rule="evenodd" d="M73.185 62.4756C73.185 63.2157 72.5836 63.8153 71.8419 63.8153C71.1003 63.8153 70.4985 63.2154 70.4985 62.4756C70.4985 61.7359 71.1 61.1356 71.8419 61.1356C72.5839 61.1356 73.185 61.7355 73.185 62.4756Z" fill="#B1CBEF"/>
<path fill-rule="evenodd" clip-rule="evenodd" d="M72.9938 62.4753C72.9938 63.1099 72.4779 63.6241 71.842 63.6241C71.2062 63.6241 70.6899 63.1099 70.6899 62.4753C70.6899 61.8407 71.2058 61.3261 71.842 61.3261C72.4783 61.3261 72.9938 61.8407 72.9938 62.4753Z" fill="#FBCA0D"/>
<path fill-rule="evenodd" clip-rule="evenodd" d="M72.273 63.541C72.1398 63.5944 71.9944 63.6242 71.842 63.6242C71.2058 63.6242 70.6899 63.11 70.6899 62.4754C70.6899 62.0445 70.9279 61.6687 71.2799 61.4723C71.4131 61.4189 71.5585 61.389 71.7109 61.389C72.3471 61.389 72.8626 61.9036 72.8626 62.5379C72.8626 62.9688 72.6247 63.3446 72.2727 63.541" fill="#FF9696"/>
<path fill-rule="evenodd" clip-rule="evenodd" d="M72.4923 63.1251C72.4558 63.1615 72.3956 63.1615 72.3591 63.1251L71.1889 61.9579C71.152 61.9215 71.1524 61.8614 71.1889 61.825C71.2254 61.7886 71.2856 61.7882 71.3221 61.825L72.4923 62.9922C72.5292 63.0287 72.5292 63.0887 72.4923 63.1251Z" fill="#EA6301"/>
<path fill-rule="evenodd" clip-rule="evenodd" d="M73.185 67.8243C73.185 68.5644 72.5836 69.1643 71.8419 69.1643C71.1003 69.1643 70.4985 68.5644 70.4985 67.8243C70.4985 67.0842 71.1 66.4843 71.8419 66.4843C72.5839 66.4843 73.185 67.0842 73.185 67.8243Z" fill="#B1CBEF"/>
<path fill-rule="evenodd" clip-rule="evenodd" d="M72.9938 67.8245C72.9938 68.4591 72.4779 68.9733 71.842 68.9733C71.2062 68.9733 70.6899 68.4588 70.6899 67.8245C70.6899 67.1902 71.2058 66.6757 71.842 66.6757C72.4783 66.6757 72.9938 67.1902 72.9938 67.8245Z" fill="#FBCA0D"/>
<path fill-rule="evenodd" clip-rule="evenodd" d="M72.273 68.8905C72.1398 68.9439 71.9944 68.9738 71.842 68.9738C71.2058 68.9738 70.6899 68.4592 70.6899 67.8249C70.6899 67.394 70.9279 67.0182 71.2799 66.8218C71.4131 66.7684 71.5585 66.7386 71.7109 66.7386C72.3471 66.7386 72.8626 67.2528 72.8626 67.8877C72.8626 68.3187 72.6247 68.6941 72.2727 68.8908" fill="#FF9696"/>
<path fill-rule="evenodd" clip-rule="evenodd" d="M72.4923 68.4746C72.4558 68.5111 72.3956 68.5111 72.3591 68.4746L71.1889 67.3074C71.152 67.2706 71.1524 67.211 71.1889 67.1745C71.2254 67.1381 71.2856 67.1378 71.3221 67.1745L72.4923 68.3418C72.5292 68.3782 72.5292 68.4382 72.4923 68.4746Z" fill="#EA6301"/>
<path fill-rule="evenodd" clip-rule="evenodd" d="M70.0201 62.4756C70.0201 63.2157 69.4186 63.8153 68.6767 63.8153C67.9347 63.8153 67.3333 63.2154 67.3333 62.4756C67.3333 61.7359 67.9347 61.1356 68.6767 61.1356C69.4186 61.1356 70.0201 61.7355 70.0201 62.4756Z" fill="#B1CBEF"/>
<path fill-rule="evenodd" clip-rule="evenodd" d="M69.8281 62.4753C69.8281 63.1099 69.3126 63.6241 68.6764 63.6241C68.0402 63.6241 67.5247 63.1099 67.5247 62.4753C67.5247 61.8407 68.0402 61.3261 68.6764 61.3261C69.3126 61.3261 69.8281 61.8407 69.8281 62.4753Z" fill="#FBCA0D"/>
<path fill-rule="evenodd" clip-rule="evenodd" d="M69.1074 63.541C68.9745 63.5944 68.8288 63.6242 68.6764 63.6242C68.0402 63.6242 67.5247 63.11 67.5247 62.4754C67.5247 62.0445 67.7626 61.6687 68.1146 61.4723C68.2478 61.4189 68.3932 61.389 68.5456 61.389C69.1818 61.389 69.6973 61.9036 69.6973 62.5379C69.6973 62.9688 69.4594 63.3446 69.1074 63.541Z" fill="#FC8600"/>
<path fill-rule="evenodd" clip-rule="evenodd" d="M69.3304 63.1251C69.2936 63.1615 69.2337 63.1615 69.1972 63.1251L68.027 61.9579C67.9902 61.9215 67.9905 61.8614 68.027 61.825C68.0636 61.7886 68.1237 61.7882 68.1603 61.825L69.3304 62.9922C69.367 63.0287 69.367 63.0887 69.3304 63.1251Z" fill="#EA6301"/>
<path fill-rule="evenodd" clip-rule="evenodd" d="M70.0201 67.8243C70.0201 68.5644 69.4186 69.1643 68.6767 69.1643C67.9347 69.1643 67.3333 68.5644 67.3333 67.8243C67.3333 67.0842 67.9347 66.4843 68.6767 66.4843C69.4186 66.4843 70.0201 67.0842 70.0201 67.8243Z" fill="#B1CBEF"/>
<path fill-rule="evenodd" clip-rule="evenodd" d="M69.8281 67.8245C69.8281 68.4591 69.3126 68.9733 68.6764 68.9733C68.0402 68.9733 67.5247 68.4588 67.5247 67.8245C67.5247 67.1902 68.0402 66.6757 68.6764 66.6757C69.3126 66.6757 69.8281 67.1902 69.8281 67.8245Z" fill="#FBCA0D"/>
<path fill-rule="evenodd" clip-rule="evenodd" d="M69.1074 68.8905C68.9745 68.9439 68.8288 68.9738 68.6764 68.9738C68.0402 68.9738 67.5247 68.4592 67.5247 67.8249C67.5247 67.394 67.7626 67.0182 68.1146 66.8218C68.2478 66.7684 68.3932 66.7386 68.5456 66.7386C69.1818 66.7386 69.6973 67.2528 69.6973 67.8877C69.6973 68.3187 69.4594 68.6941 69.1074 68.8908" fill="#FC8600"/>
<path fill-rule="evenodd" clip-rule="evenodd" d="M69.3304 68.4746C69.2936 68.5111 69.2337 68.5111 69.1972 68.4746L68.027 67.3074C67.9902 67.2706 67.9905 67.211 68.027 67.1745C68.0636 67.1381 68.1237 67.1378 68.1603 67.1745L69.3304 68.3418C69.367 68.3782 69.367 68.4382 69.3304 68.4746Z" fill="#EA6301"/>
<path fill-rule="evenodd" clip-rule="evenodd" d="M66.8582 62.4756C66.8582 63.2157 66.2568 63.8153 65.5148 63.8153C64.7728 63.8153 64.1714 63.2154 64.1714 62.4756C64.1714 61.7359 64.7728 61.1356 65.5148 61.1356C66.2568 61.1356 66.8582 61.7355 66.8582 62.4756Z" fill="#B1CBEF"/>
<path fill-rule="evenodd" clip-rule="evenodd" d="M66.6697 62.4753C66.6697 63.1099 66.1542 63.6241 65.518 63.6241C64.8817 63.6241 64.3662 63.1099 64.3662 62.4753C64.3662 61.8407 64.8817 61.3261 65.518 61.3261C66.1542 61.3261 66.6697 61.8407 66.6697 62.4753Z" fill="#FBCA0D"/>
<path fill-rule="evenodd" clip-rule="evenodd" d="M65.9489 63.541C65.8157 63.5944 65.6703 63.6242 65.518 63.6242C64.8817 63.6242 64.3662 63.11 64.3662 62.4754C64.3662 62.0445 64.6041 61.6687 64.9562 61.4723C65.0894 61.4189 65.2348 61.389 65.3872 61.389C66.0234 61.389 66.5389 61.9036 66.5389 62.5379C66.5389 62.9688 66.301 63.3446 65.9489 63.541Z" fill="#FC8600"/>
<path fill-rule="evenodd" clip-rule="evenodd" d="M66.1652 63.1251C66.1286 63.1615 66.0685 63.1615 66.0319 63.1251L64.8618 61.9579C64.8249 61.9215 64.8252 61.8614 64.8618 61.825C64.8983 61.7886 64.9585 61.7882 64.995 61.825L66.1652 62.9922C66.202 63.0287 66.202 63.0887 66.1652 63.1251Z" fill="#EA6301"/>
<path fill-rule="evenodd" clip-rule="evenodd" d="M66.8582 67.8243C66.8582 68.5644 66.2568 69.1643 65.5148 69.1643C64.7728 69.1643 64.1714 68.5644 64.1714 67.8243C64.1714 67.0842 64.7728 66.4843 65.5148 66.4843C66.2568 66.4843 66.8582 67.0842 66.8582 67.8243Z" fill="#B1CBEF"/>
<path fill-rule="evenodd" clip-rule="evenodd" d="M66.6697 67.8245C66.6697 68.4591 66.1542 68.9733 65.518 68.9733C64.8817 68.9733 64.3662 68.4588 64.3662 67.8245C64.3662 67.1902 64.8817 66.6757 65.518 66.6757C66.1542 66.6757 66.6697 67.1902 66.6697 67.8245Z" fill="#FBCA0D"/>
<path fill-rule="evenodd" clip-rule="evenodd" d="M65.9489 68.8905C65.8157 68.9439 65.6703 68.9738 65.518 68.9738C64.8817 68.9738 64.3662 68.4592 64.3662 67.8249C64.3662 67.394 64.6041 67.0182 64.9562 66.8218C65.0894 66.7684 65.2348 66.7386 65.3872 66.7386C66.0234 66.7386 66.5389 67.2528 66.5389 67.8877C66.5389 68.3187 66.301 68.6941 65.9489 68.8908" fill="#FC8600"/>
<path fill-rule="evenodd" clip-rule="evenodd" d="M66.1652 68.4746C66.1286 68.5111 66.0685 68.5111 66.0319 68.4746L64.8618 67.3074C64.8249 67.2706 64.8252 67.211 64.8618 67.1745C64.8983 67.1381 64.9585 67.1378 64.995 67.1745L66.1652 68.3418C66.202 68.3782 66.202 68.4382 66.1652 68.4746Z" fill="#EA6301"/>
<path fill-rule="evenodd" clip-rule="evenodd" d="M40.4976 21.6565L46.632 21.6436L51.0306 70.8474L36.6858 70.8776L40.4976 21.6565Z" fill="#7D83FF"/>
<path d="M51.0306 70.8479L43.8199 64.3903L36.6858 70.8781L51.0306 70.8479Z" fill="#ED6F0A"/>
<path d="M57.3496 26.4631C57.3448 25.6664 56.6998 25.0221 55.9074 25.0235C55.1175 25.0252 54.4788 25.6723 54.4837 26.469C54.4871 27.0508 54.8329 27.5515 55.3269 27.7784L55.7871 32.8817C55.7589 36.4771 59.6879 39.3969 64.5665 39.4045C69.4431 39.4118 73.4194 36.5042 73.449 32.9088L72.9891 27.7604C73.5032 27.5408 73.8619 27.0269 73.8584 26.4284C73.8535 25.6314 73.2086 24.987 72.4172 24.9888C71.6262 24.9905 70.989 25.6376 70.9938 26.4343C70.9973 27.0165 71.3427 27.5175 71.837 27.7441L72.2969 32.9067C72.284 34.4716 71.4137 35.8817 70.016 36.9056C68.6159 37.9285 66.6954 38.5575 64.5735 38.5551C62.4499 38.551 60.5401 37.916 59.156 36.8889C57.774 35.8609 56.9277 34.448 56.9392 32.8831L56.479 27.7951C56.9941 27.5758 57.3535 27.0616 57.35 26.4627" fill="#7D83FF"/>
<g opacity="0.75">
<mask id="mask2_299_87" style="mask-type:luminance" maskUnits="userSpaceOnUse" x="22" y="33" width="20" height="38">
<path d="M24.4527 33.1819H39.1697C40.5187 33.1819 41.6224 34.3595 41.6224 35.7988V68.2922C41.6224 69.7315 40.5187 70.9091 39.1697 70.9091H24.4527C23.1037 70.9091 22 69.7315 22 68.2922V35.7988C22 34.3595 23.1037 33.1819 24.4527 33.1819Z" fill="white"/>
</mask>
<g mask="url(#mask2_299_87)">
<path d="M41.6224 33.1819H22V70.9091H41.6224V33.1819Z" fill="#88B9FF"/>
</g>
</g>
<path fill-rule="evenodd" clip-rule="evenodd" d="M24.3349 35.0472C23.6204 35.0472 23.0315 35.6523 23.0315 36.3861V67.9574C23.0315 68.6916 23.6204 69.2967 24.3349 69.2967H39.2832C39.9977 69.2967 40.5866 68.6916 40.5866 67.9574V36.3861C40.5866 35.6519 39.9977 35.0472 39.2832 35.0472H24.3349Z" fill="white"/>
<path fill-rule="evenodd" clip-rule="evenodd" d="M33.7097 35.749H30.2141C30.0906 35.749 29.9897 35.8496 29.9897 35.9728C29.9897 36.096 30.0906 36.1966 30.2141 36.1966H33.7097C33.8332 36.1966 33.9341 36.096 33.9341 35.9728C33.9341 35.8496 33.8332 35.749 33.7097 35.749Z" fill="#91AED8"/>
<path fill-rule="evenodd" clip-rule="evenodd" d="M24.2458 37.3564H39.3656C39.6418 37.3564 39.8679 37.5819 39.8679 37.8574V68.2861H23.7439V37.8574C23.7439 37.5819 23.9697 37.3564 24.2458 37.3564Z" fill="#BDFAC9"/>
<path fill-rule="evenodd" clip-rule="evenodd" d="M24.38 35.6683C24.2327 35.6683 24.1125 35.7884 24.1125 35.9355V35.9567C24.1125 36.1038 24.2331 36.2242 24.38 36.2242C24.5269 36.2242 24.6474 36.1041 24.6474 35.9567V35.9355C24.6474 35.7884 24.5269 35.6683 24.38 35.6683Z" fill="#91AED8"/>
<path fill-rule="evenodd" clip-rule="evenodd" d="M54.4321 55.5858H69.4754C69.88 55.5858 70.2108 55.9161 70.2108 56.3193V59.0701C70.2108 59.4736 69.88 59.8036 69.4754 59.8036H54.4321C54.0276 59.8036 53.6968 59.4736 53.6968 59.0701V56.3193C53.6968 55.9158 54.0276 55.5858 54.4321 55.5858Z" fill="#0071AF"/>
<path fill-rule="evenodd" clip-rule="evenodd" d="M54.7003 60.6367H69.2072C69.7592 60.6367 70.2108 61.0871 70.2108 61.6377V69.8336C70.2108 70.3843 69.7592 70.8346 69.2072 70.8346H54.7003C54.1483 70.8346 53.6968 70.3843 53.6968 69.8336V61.6377C53.6968 61.0871 54.1483 60.6367 54.7003 60.6367Z" fill="#3A9FE7"/>
<path d="M69.198 59.7727H54.7141V60.7429H69.198V59.7727Z" fill="#3A9FE7"/>
<path fill-rule="evenodd" clip-rule="evenodd" d="M54.7003 60.6367H67.6791C68.2311 60.6367 68.6826 61.0871 68.6826 61.6377V69.8336C68.6826 70.3843 68.2311 70.8346 67.6791 70.8346H54.7003C54.1483 70.8346 53.6968 70.3843 53.6968 69.8336V61.6377C53.6968 61.0871 54.1483 60.6367 54.7003 60.6367Z" fill="#87B9FE"/>
<mask id="mask3_299_87" style="mask-type:luminance" maskUnits="userSpaceOnUse" x="53" y="62" width="12" height="8">
<path d="M64.8952 62.4568H53.5583V69.0146H64.8952V62.4568Z" fill="white"/>
</mask>
<g mask="url(#mask3_299_87)">
<path d="M64.8952 62.4568H53.5583V69.0146H64.8952V62.4568Z" fill="#BDFAC9"/>
</g>
<path fill-rule="evenodd" clip-rule="evenodd" d="M56.2735 56.246C56.4429 56.246 56.5813 56.3841 56.5813 56.553V58.2365C56.5813 58.4055 56.4429 58.5436 56.2735 58.5436C56.1041 58.5436 55.9656 58.4055 55.9656 58.2365V56.553C55.9656 56.3841 56.1041 56.246 56.2735 56.246ZM57.6419 56.246C57.8113 56.246 57.9498 56.3841 57.9498 56.553V58.2365C57.9498 58.4055 57.811 58.5436 57.6419 58.5436C57.4725 58.5436 57.3341 58.4055 57.3341 58.2365V56.553C57.3341 56.3841 57.4725 56.246 57.6419 56.246ZM59.0104 56.246C59.1798 56.246 59.3182 56.3841 59.3182 56.553V58.2365C59.3182 58.4055 59.1798 58.5436 59.0104 58.5436C58.841 58.5436 58.7025 58.4055 58.7025 58.2365V56.553C58.7025 56.3841 58.841 56.246 59.0104 56.246ZM60.3788 56.246C60.5482 56.246 60.6867 56.3841 60.6867 56.553V58.2365C60.6867 58.4055 60.5482 58.5436 60.3788 58.5436C60.2094 58.5436 60.071 58.4055 60.071 58.2365V56.553C60.071 56.3841 60.2094 56.246 60.3788 56.246ZM61.7476 56.246C61.917 56.246 62.0555 56.3841 62.0555 56.553V58.2365C62.0555 58.4055 61.917 58.5436 61.7476 58.5436C61.5782 58.5436 61.4398 58.4055 61.4398 58.2365V56.553C61.4398 56.3841 61.5782 56.246 61.7476 56.246ZM63.1161 56.246C63.2855 56.246 63.4239 56.3841 63.4239 56.553V58.2365C63.4239 58.4055 63.2855 58.5436 63.1161 58.5436C62.9467 58.5436 62.8082 58.4055 62.8082 58.2365V56.553C62.8082 56.3841 62.9467 56.246 63.1161 56.246ZM64.4845 56.246C64.654 56.246 64.7924 56.3841 64.7924 56.553V58.2365C64.7924 58.4055 64.654 58.5436 64.4845 58.5436C64.3151 58.5436 64.1767 58.4055 64.1767 58.2365V56.553C64.1767 56.3841 64.3155 56.246 64.4845 56.246ZM65.853 56.246C66.0224 56.246 66.1609 56.3841 66.1609 56.553V58.2365C66.1609 58.4055 66.0224 58.5436 65.853 58.5436C65.6836 58.5436 65.5452 58.4055 65.5452 58.2365V56.553C65.5452 56.3841 65.6836 56.246 65.853 56.246ZM67.2218 56.246C67.3912 56.246 67.5297 56.3841 67.5297 56.553V58.2365C67.5297 58.4055 67.3912 58.5436 67.2218 58.5436C67.0524 58.5436 66.914 58.4055 66.914 58.2365V56.553C66.914 56.3841 67.0524 56.246 67.2218 56.246ZM54.905 56.246C55.0744 56.246 55.2129 56.3841 55.2129 56.553V58.2365C55.2129 58.4055 55.0741 58.5436 54.905 58.5436C54.7356 58.5436 54.5972 58.4055 54.5972 58.2365V56.553C54.5972 56.3841 54.7356 56.246 54.905 56.246Z" fill="#00507F"/>
<path d="M64.362 69.9253C64.362 70.519 63.8795 70.9999 63.285 70.9999H59.0419C58.4471 70.9999 57.9646 70.519 57.9646 69.9253C57.9646 69.3317 58.4467 68.8511 59.0419 68.8511H63.285C63.8795 68.8511 64.362 69.3317 64.362 69.9253Z" fill="#FFAD1E"/>
<path d="M64.3618 69.9253C64.3618 69.3317 63.8794 68.8511 63.2849 68.8511H61.1797V70.9999H63.2849C63.8794 70.9999 64.3618 70.519 64.3618 69.9253Z" fill="#F64D11"/>
<path d="M59.0412 71H61.1791V69.933H57.9646C57.9691 70.5229 58.4492 71 59.0412 71Z" fill="#FFAD1E"/>
<path d="M63.2845 71C63.8769 71 64.357 70.5229 64.3615 69.933H61.1797V71H63.2845Z" fill="#F64D11"/>
<path fill-rule="evenodd" clip-rule="evenodd" d="M61.1797 69.1896H63.3816C63.552 69.1896 63.6915 69.3287 63.6915 69.4988C63.6915 69.6691 63.552 69.8083 63.3816 69.8083H61.1797V69.1896Z" fill="#FFA686"/>
<path fill-rule="evenodd" clip-rule="evenodd" d="M60.2806 69.19H61.1798V69.8086H60.2806C60.1102 69.8086 59.9707 69.6695 59.9707 69.4991C59.9707 69.3287 60.1102 69.1896 60.2806 69.1896" fill="#FFFBDA"/>
<path d="M66.7156 70.6681C66.3013 71.0946 65.6195 71.105 65.1923 70.6924L62.1451 67.7473C61.718 67.3344 61.7072 66.6543 62.1215 66.2279C62.5354 65.8018 63.2172 65.7911 63.6444 66.204L66.6916 69.1491C67.1184 69.5616 67.1295 70.2417 66.7156 70.6681Z" fill="#FFAD1E"/>
<path d="M66.7175 70.6681C67.1314 70.2421 67.1207 69.562 66.6935 69.1491L65.1814 67.6876L63.6821 69.231L65.1939 70.6924C65.6211 71.105 66.3029 71.0946 66.7171 70.6681" fill="#F64D11"/>
<path d="M62.1446 67.747L63.68 69.231L64.4244 68.4649L62.1161 66.2335C61.7077 66.6603 61.7195 67.3358 62.1449 67.747" fill="#FFAD1E"/>
<path d="M65.1939 70.6914C65.6193 71.1026 66.2966 71.0932 66.7116 70.6727L64.4265 68.4639L63.6821 69.23L65.1939 70.6911V70.6914Z" fill="#F64D11"/>
<path fill-rule="evenodd" clip-rule="evenodd" d="M64.9432 67.9304L66.5245 69.4592C66.6469 69.5775 66.6501 69.7742 66.5315 69.8967C66.4128 70.0189 66.2153 70.022 66.0928 69.9037L64.5115 68.3752L64.9432 67.9308V67.9304Z" fill="#FFA686"/>
<path fill-rule="evenodd" clip-rule="evenodd" d="M64.2964 67.3074L64.942 67.9312L64.5103 68.3757L63.8647 67.7515C63.7422 67.6332 63.7391 67.4364 63.8577 67.3143C63.9763 67.1922 64.1736 67.189 64.2964 67.3074Z" fill="#FFFBDA"/>
<path fill-rule="evenodd" clip-rule="evenodd" d="M45.197 47.4733H51.8973C52.2427 47.4733 52.5252 47.7551 52.5252 48.0996V50.6048C52.5252 50.9493 52.2427 51.231 51.8973 51.231H45.197C44.8515 51.231 44.5691 50.9493 44.5691 50.6048V48.0996C44.5691 47.7551 44.8515 47.4733 45.197 47.4733Z" fill="#86ABFB"/>
<path fill-rule="evenodd" clip-rule="evenodd" d="M45.1648 52.7963H51.9264C53.9718 52.7963 55.6453 54.4656 55.6453 56.5058V68.9344C55.6453 69.9677 54.7976 70.8133 53.7617 70.8133H43.1849C42.2286 70.8133 41.4463 70.0329 41.4463 69.0791V56.5058C41.4463 54.4656 43.1198 52.7963 45.1652 52.7963" fill="#6B72FF"/>
<path fill-rule="evenodd" clip-rule="evenodd" d="M45.1652 52.796H45.3342V51.2305H51.7577V52.974C53.2524 53.4556 54.3416 54.8595 54.3416 56.5055V68.9342C54.3416 69.9675 53.4938 70.813 52.4579 70.813H43.1849C42.2286 70.813 41.4463 70.0327 41.4463 69.0789V56.5055C41.4463 54.4653 43.1198 52.796 45.1652 52.796Z" fill="#9398FF"/>
<path opacity="0.7" fill-rule="evenodd" clip-rule="evenodd" d="M45.3204 48.1955C45.41 48.1955 45.4829 48.2687 45.4829 48.3582V50.3454C45.4829 50.4349 45.4096 50.5081 45.3204 50.5081C45.2311 50.5081 45.1575 50.4349 45.1575 50.3454V48.3582C45.1575 48.2687 45.2308 48.1955 45.3204 48.1955Z" fill="#00033E"/>
<path opacity="0.7" fill-rule="evenodd" clip-rule="evenodd" d="M46.398 48.1955C46.4876 48.1955 46.5609 48.2687 46.5609 48.3582V50.3454C46.5609 50.4349 46.4876 50.5081 46.398 50.5081C46.3084 50.5081 46.2351 50.4349 46.2351 50.3454V48.3582C46.2351 48.2687 46.3084 48.1955 46.398 48.1955Z" fill="#00033E"/>
<path opacity="0.7" fill-rule="evenodd" clip-rule="evenodd" d="M47.472 48.1955C47.5616 48.1955 47.6349 48.2687 47.6349 48.3582V50.3454C47.6349 50.4349 47.5616 50.5081 47.472 50.5081C47.3824 50.5081 47.3091 50.4349 47.3091 50.3454V48.3582C47.3091 48.2687 47.3824 48.1955 47.472 48.1955Z" fill="#00033E"/>
<path opacity="0.7" fill-rule="evenodd" clip-rule="evenodd" d="M48.5496 48.1955C48.6392 48.1955 48.7125 48.2687 48.7125 48.3582V50.3454C48.7125 50.4349 48.6392 50.5081 48.5496 50.5081C48.46 50.5081 48.3867 50.4349 48.3867 50.3454V48.3582C48.3867 48.2687 48.46 48.1955 48.5496 48.1955Z" fill="#00033E"/>
<path opacity="0.7" fill-rule="evenodd" clip-rule="evenodd" d="M49.6236 48.1955C49.7132 48.1955 49.7861 48.2687 49.7861 48.3582V50.3454C49.7861 50.4349 49.7129 50.5081 49.6236 50.5081C49.5343 50.5081 49.4607 50.4349 49.4607 50.3454V48.3582C49.4607 48.2687 49.534 48.1955 49.6236 48.1955Z" fill="#00033E"/>
<path opacity="0.7" fill-rule="evenodd" clip-rule="evenodd" d="M50.6941 48.1955C50.7838 48.1955 50.8567 48.2687 50.8567 48.3582V50.3454C50.8567 50.4349 50.7834 50.5081 50.6941 50.5081C50.6049 50.5081 50.5312 50.4349 50.5312 50.3454V48.3582C50.5312 48.2687 50.6045 48.1955 50.6941 48.1955Z" fill="#00033E"/>
<path opacity="0.7" fill-rule="evenodd" clip-rule="evenodd" d="M51.7718 48.1955C51.8614 48.1955 51.9343 48.2687 51.9343 48.3582V50.3454C51.9343 50.4349 51.861 50.5081 51.7718 50.5081C51.6825 50.5081 51.6089 50.4349 51.6089 50.3454V48.3582C51.6089 48.2687 51.6822 48.1955 51.7718 48.1955Z" fill="#00033E"/>
<path d="M55.6453 58.565H41.4463V65.7428H55.6453V58.565Z" fill="#ABD4FF"/>
<path fill-rule="evenodd" clip-rule="evenodd" d="M44.0762 56.8547C44.6474 56.8547 45.1145 57.3207 45.1145 57.8904V66.4173C45.1145 66.9871 44.6474 67.4531 44.0762 67.4531C43.505 67.4531 43.0378 66.9871 43.0378 66.4173V57.8904C43.0378 57.3207 43.505 56.8547 44.0762 56.8547Z" fill="#B298FF"/>
<path d="M45.1145 58.565H43.0378V65.7428H45.1145V58.565Z" fill="#CCE9F9"/>
<mask id="mask4_299_87" style="mask-type:luminance" maskUnits="userSpaceOnUse" x="45" y="59" width="7" height="6">
<path d="M48.5465 59.5361C50.0308 59.5361 51.2337 60.7363 51.2337 62.2165C51.2337 63.6967 50.0305 64.8972 48.5465 64.8972C47.0626 64.8972 45.8594 63.6971 45.8594 62.2165C45.8594 60.736 47.0626 59.5361 48.5465 59.5361Z" fill="white"/>
</mask>
<g mask="url(#mask4_299_87)">
<path d="M51.2341 59.5361H45.8594V64.8972H51.2341V59.5361Z" fill="url(#paint1_linear_299_87)"/>
</g>
<path fill-rule="evenodd" clip-rule="evenodd" d="M48.0593 60.6934H49.0385V61.7281H50.0758V62.7045H49.0385V63.7392H48.0593V62.7045H47.022V61.7281H48.0593V60.6934Z" fill="#BDFAC9"/>
<path d="M51.7582 51.2305H45.3347V51.811H51.7582V51.2305Z" fill="#7549FD"/>
<path d="M55.6496 58.565H54.3455V65.7428H55.6496V58.565Z" fill="#67C2EE"/>
<path fill-rule="evenodd" clip-rule="evenodd" d="M27.5123 59.8011H36.0949C37.1089 59.8011 37.9385 60.6286 37.9385 61.6401C37.9385 62.6515 37.1089 63.4794 36.0949 63.4794H27.5123C26.4983 63.4794 25.6687 62.6518 25.6687 61.6404C25.6687 60.629 26.4983 59.8011 27.5123 59.8011Z" fill="#7D83FF"/>
<path d="M30.6287 61.7502C30.6865 61.8254 30.7153 61.9164 30.7153 62.0229C30.7153 62.1783 30.6527 62.2984 30.5271 62.383C30.4016 62.4677 30.2203 62.51 29.9831 62.51H29.022V60.7346H29.9323C30.1595 60.7346 30.3323 60.7765 30.451 60.8602C30.5696 60.9438 30.6291 61.0569 30.6291 61.1988C30.6291 61.2835 30.6082 61.3591 30.5668 61.4257C30.5254 61.4927 30.4663 61.5454 30.3901 61.5843C30.4917 61.6197 30.5713 61.6752 30.6291 61.7505L30.6287 61.7502ZM29.5201 61.0968V61.4393H29.8659C30.0353 61.4393 30.1201 61.3817 30.1201 61.2668C30.1201 61.152 30.0353 61.0968 29.8659 61.0968H29.5201ZM30.2068 61.967C30.2068 61.847 30.1188 61.7869 29.9424 61.7869H29.5201V62.1471H29.9424C30.1188 62.1471 30.2068 62.0871 30.2068 61.967Z" fill="white"/>
<path d="M31.183 62.3296C31.0362 62.1859 30.9631 61.9819 30.9631 61.7182V60.7342H31.4665V61.7033C31.4665 61.9875 31.5792 62.1294 31.8046 62.1294C32.03 62.1294 32.1403 61.9875 32.1403 61.7033V60.7342H32.6363V61.7182C32.6363 61.9819 32.5629 62.1859 32.4165 62.3296C32.2697 62.4732 32.0644 62.5451 31.7997 62.5451C31.535 62.5451 31.3298 62.4732 31.183 62.3296Z" fill="white"/>
<path d="M33.905 61.873V62.5097H33.4017V61.8653L32.7227 60.7342H33.2542L33.6765 61.4392L34.0988 60.7342H34.5871L33.9057 61.873H33.905Z" fill="white"/>
<path fill-rule="evenodd" clip-rule="evenodd" d="M27.4893 41.5558H36.1233C36.2708 41.5558 36.3912 41.6762 36.3912 41.8233V43.3416C36.3912 43.4888 36.2705 43.6092 36.1233 43.6092H27.4893C27.3418 43.6092 27.2214 43.4888 27.2214 43.3416V41.8233C27.2214 41.6762 27.3421 41.5558 27.4893 41.5558Z" fill="#B1C8F2"/>
<path fill-rule="evenodd" clip-rule="evenodd" d="M27.7357 43.6089H35.8748V56.2332C35.8748 56.8436 35.3742 57.3429 34.7623 57.3429H28.8749C28.2481 57.3429 27.7354 56.8314 27.7354 56.2062V43.6089H27.7357Z" fill="#FF9113"/>
<path fill-rule="evenodd" clip-rule="evenodd" d="M27.7357 43.6089H34.4096V56.2332C34.4096 56.8436 33.9091 57.3429 33.2972 57.3429H28.8749C28.2481 57.3429 27.7354 56.8314 27.7354 56.2062V43.6089H27.7357Z" fill="#FFAD1E"/>
<path d="M35.8761 46.6262H29.731V53.6351H35.8761V46.6262Z" fill="#BBCCEA"/>
<path d="M34.413 46.6262H27.6929V53.6351H34.413V46.6262Z" fill="#E1EAF9"/>
<path fill-rule="evenodd" clip-rule="evenodd" d="M29.307 45.2997C29.5613 45.2997 29.7693 45.5075 29.7693 45.7615V52.3415C29.7693 52.5955 29.5613 52.8033 29.307 52.8033C29.0528 52.8033 28.8447 52.5955 28.8447 52.3415V45.7615C28.8447 45.5075 29.0528 45.2997 29.307 45.2997Z" fill="#FFC26D"/>
<path fill-rule="evenodd" clip-rule="evenodd" d="M29.7693 46.6262V52.3408C29.7693 52.5948 29.5613 52.8027 29.307 52.8027C29.0528 52.8027 28.8447 52.5948 28.8447 52.3408V46.6262H29.769H29.7693Z" fill="white"/>
<path fill-rule="evenodd" clip-rule="evenodd" d="M30.5918 41.5558H27.4893C27.3418 41.5558 27.2214 41.6762 27.2214 41.8233V43.0099H27.7248V41.8493C27.7248 41.7681 27.7916 41.7015 27.873 41.7015C27.9544 41.7015 28.0211 41.7681 28.0211 41.8493V43.0099H28.4841V41.8493C28.4841 41.7681 28.5509 41.7015 28.6323 41.7015C28.7137 41.7015 28.7805 41.7681 28.7805 41.8493V43.0099H29.2435V41.8455V41.8417V41.8378L29.2442 41.834C29.2637 41.6595 29.519 41.6567 29.5392 41.834V41.8378L29.5399 41.8417V41.8455V41.8493V43.0099H30.0029V41.8455V41.8417V41.8378L30.0036 41.834C30.0237 41.6574 30.2791 41.6595 30.2985 41.834V41.8378H30.2989V41.8417L30.2992 41.8455V43.0099H30.7622V41.8493C30.7622 41.6508 31.0377 41.6574 31.0579 41.834V41.8378L31.0586 41.8417V41.8455V41.8493V43.0099H31.5216V41.8455V41.8417V41.8378L31.5223 41.834C31.5418 41.6595 31.7971 41.6571 31.8173 41.834V41.8378L31.818 41.8417V41.8455V41.8493V43.0099H32.281V41.8455V41.8417V41.8378L32.2817 41.834C32.3018 41.6574 32.5572 41.6592 32.5766 41.834V41.8378L32.5773 41.8417V41.8455V41.8493V43.0099H33.0403V41.8493C33.0403 41.7681 33.1071 41.7015 33.1885 41.7015C33.2703 41.7015 33.3367 41.7681 33.3367 41.8493V43.0099H33.7997V41.8493C33.7997 41.7681 33.8665 41.7015 33.9479 41.7015C34.0293 41.7015 34.0961 41.7681 34.0961 41.8493V43.0099H34.6808V41.5558H30.5918Z" fill="#EAF1FF"/>
<path fill-rule="evenodd" clip-rule="evenodd" d="M27.6474 43.6089H35.9521C36.1357 43.6089 36.286 43.7588 36.286 43.942C36.286 44.1252 36.1357 44.2751 35.9521 44.2751H27.6474C27.4637 44.2751 27.3135 44.1252 27.3135 43.942C27.3135 43.7588 27.4637 43.6089 27.6474 43.6089Z" fill="#FFAD1E"/>
<path d="M35.8778 44.2753H27.7388V45.1583H35.8778V44.2753Z" fill="#FF7E20"/>
<path fill-rule="evenodd" clip-rule="evenodd" d="M32.0332 48.0777C33.0639 48.0777 33.8995 48.9111 33.8995 49.9392C33.8995 50.9673 33.0639 51.8007 32.0332 51.8007C31.0025 51.8007 30.167 50.9673 30.167 49.9392C30.167 48.9111 31.0025 48.0777 32.0332 48.0777Z" fill="#B1C8F2"/>
<path fill-rule="evenodd" clip-rule="evenodd" d="M31.3074 49.0081H32.7503C32.8707 49.0081 32.9695 49.1063 32.9695 49.2263C32.9695 49.3464 32.871 49.4446 32.7503 49.4446H31.3074C31.1871 49.4446 31.0886 49.3464 31.0886 49.2263C31.0886 49.1063 31.1871 49.0081 31.3074 49.0081Z" fill="#87A7E2"/>
<path fill-rule="evenodd" clip-rule="evenodd" d="M30.9068 49.7383H33.1532C33.2736 49.7383 33.372 49.8364 33.372 49.9565C33.372 50.0765 33.2736 50.1747 33.1532 50.1747H30.9068C30.7864 50.1747 30.688 50.0765 30.688 49.9565C30.688 49.8364 30.7864 49.7383 30.9068 49.7383Z" fill="#87A7E2"/>
<path fill-rule="evenodd" clip-rule="evenodd" d="M31.3074 50.4693H32.7503C32.8707 50.4693 32.9695 50.5675 32.9695 50.6875C32.9695 50.8076 32.871 50.9058 32.7503 50.9058H31.3074C31.1871 50.9058 31.0886 50.8076 31.0886 50.6875C31.0886 50.5675 31.1871 50.4693 31.3074 50.4693Z" fill="#87A7E2"/>
<path fill-rule="evenodd" clip-rule="evenodd" d="M65.837 40.9884C69.4393 40.9114 72.4222 43.7614 72.4998 47.3547C72.5773 50.9479 69.7197 53.9233 66.1173 54.0003C62.515 54.0777 59.5321 51.2273 59.4549 47.634C59.3773 44.0407 62.235 41.0654 65.8373 40.988" fill="#7D83FF"/>
<path fill-rule="evenodd" clip-rule="evenodd" d="M64.3773 43.8327L67.2774 43.7179L67.3678 45.9902L69.6456 45.9L69.7604 48.7931L67.4826 48.883L67.5727 51.1549L64.6727 51.2698L64.5826 48.9975L62.3048 49.0877L62.1897 46.1949L64.4674 46.1047L64.3773 43.8327Z" fill="#BDFAC9"/>
<path opacity="0.7" fill-rule="evenodd" clip-rule="evenodd" d="M44.6879 50.308H52.4061C52.5866 50.308 52.7341 50.4551 52.7341 50.6352V50.9034C52.7341 51.0835 52.5866 51.2306 52.4061 51.2306H44.6879C44.5074 51.2306 44.3599 51.0835 44.3599 50.9034V50.6352C44.3599 50.4551 44.5074 50.308 44.6879 50.308Z" fill="#00033E"/>
<defs>
<linearGradient id="paint0_linear_299_87" x1="53.6539" y1="4.83093" x2="53.6539" y2="-0.595756" gradientUnits="userSpaceOnUse">
<stop stop-color="#EA6200"/>
<stop offset="1" stop-color="#FFC045"/>
</linearGradient>
<linearGradient id="paint1_linear_299_87" x1="48.5469" y1="66.1453" x2="48.5469" y2="58.4303" gradientUnits="userSpaceOnUse">
<stop stop-color="#1E9DF8"/>
<stop offset="1" stop-color="#B9E4FF"/>
</linearGradient>
</defs>
</svg>
