<svg width="28" height="28" viewBox="0 0 28 28" fill="none" xmlns="http://www.w3.org/2000/svg">
<path d="M9.33341 25.6667C9.97775 25.6667 10.5001 25.1443 10.5001 24.5C10.5001 23.8557 9.97775 23.3333 9.33341 23.3333C8.68908 23.3333 8.16675 23.8557 8.16675 24.5C8.16675 25.1443 8.68908 25.6667 9.33341 25.6667Z" stroke="#003236" stroke-width="2.5" stroke-linecap="round" stroke-linejoin="round"/>
<path d="M22.1667 25.6667C22.811 25.6667 23.3333 25.1443 23.3333 24.5C23.3333 23.8557 22.811 23.3333 22.1667 23.3333C21.5223 23.3333 21 23.8557 21 24.5C21 25.1443 21.5223 25.6667 22.1667 25.6667Z" stroke="#003236" stroke-width="2.5" stroke-linecap="round" stroke-linejoin="round"/>
<path d="M2.3916 2.39167H4.72494L7.82827 16.8817C7.94211 17.4123 8.23738 17.8867 8.66326 18.2232C9.08915 18.5596 9.61899 18.7371 10.1616 18.725H21.5716C22.1026 18.7241 22.6175 18.5422 23.0311 18.2091C23.4448 17.8761 23.7324 17.412 23.8466 16.8933L25.7716 8.225H5.97327" stroke="#003236" stroke-width="2.5" stroke-linecap="round" stroke-linejoin="round"/>
</svg>
