<svg width="313" height="224" viewBox="0 0 313 224" fill="none" xmlns="http://www.w3.org/2000/svg">
<path d="M244.385 35.1941C271.629 36.0267 308.447 29.6157 359.06 17.6145C362.038 19.6262 364.928 22.5565 367.65 26.1749C383.067 46.5556 393.433 88.7917 385.469 112.511C354.403 119.877 305.047 130.246 278.684 154.861C252.324 179.488 238.601 183.004 218.461 188.577C198.332 194.148 167.551 206.62 164.049 194.485C163.141 191.334 163.426 187.851 164.812 184.28C166.958 178.747 171.766 173.031 178.975 168.144C178.33 168.297 177.66 168.443 177.004 168.598C175.787 168.874 174.558 169.153 173.319 169.434C171.389 169.867 169.428 170.319 167.431 170.767C162.344 171.924 157.072 173.124 151.763 174.321C150.83 174.53 149.898 174.738 148.965 174.946C146.881 175.416 144.786 175.888 142.713 176.354C141.759 176.569 140.793 176.785 139.838 176.998C137.346 177.551 134.879 178.111 132.442 178.652C130.224 179.141 128.041 179.633 125.878 180.109C118.436 181.762 111.426 183.287 105.29 184.605C104.882 184.688 104.478 184.784 104.081 184.866C103.519 184.987 102.959 185.107 102.41 185.225C101.794 185.358 101.187 185.477 100.593 185.606C100.099 185.71 99.6143 185.813 99.1412 185.912C98.5262 186.046 97.9184 186.165 97.3356 186.291C96.2465 186.524 95.199 186.735 94.2085 186.945C93.6227 187.059 93.0624 187.179 92.5098 187.285C91.924 187.399 91.3524 187.522 90.8111 187.625C64.1915 192.915 57.3074 164.677 81.9625 156.786C95.9153 152.318 126.264 143.576 151.579 136.401C137.027 136.61 131.634 124.213 135.431 114.585C137.081 110.391 140.482 106.73 145.626 104.862C146.243 104.641 146.861 104.42 147.467 104.201C139.192 102.485 132.775 92.0634 136.454 83.8486C137.703 80.9966 140.185 78.4128 144.234 76.5561C147.22 75.1868 150.354 73.8951 153.502 72.7132C148.983 70.8801 146.677 66.0288 148.633 60.9514C150.459 56.2428 155.973 51.3316 166.818 48.4986C173.607 46.7268 180.356 44.89 187.136 43.1818C205.7 38.458 224.428 34.5898 244.385 35.1941Z" fill="#A4CCA0"/>
</svg>
