<svg width="104" height="71" viewBox="0 0 104 71" fill="none" xmlns="http://www.w3.org/2000/svg">
<path fill-rule="evenodd" clip-rule="evenodd" d="M26.3804 39.4923H18.5839C17.1666 39.4923 16.0071 40.6519 16.0071 42.0695V44.6467H17.9116V42.1258C17.9116 41.6199 18.3311 41.2003 18.837 41.2003H26.1277C26.6339 41.2003 27.0531 41.6199 27.0531 42.1258V44.6467H28.9576V42.0695C28.9576 40.6523 27.798 39.4923 26.3804 39.4923Z" fill="#DA1540"/>
<path fill-rule="evenodd" clip-rule="evenodd" d="M41.6888 43.2177H3.25147C2.11281 43.2177 1.18091 44.1492 1.18091 45.2882V66.8026C1.18091 67.9413 2.11243 68.8732 3.25147 68.8732H41.6891C42.8278 68.8732 43.7597 67.9417 43.7597 66.8026V45.2882C43.7597 44.1496 42.8282 43.2177 41.6891 43.2177" fill="#DA1540"/>
<path fill-rule="evenodd" clip-rule="evenodd" d="M41.6888 43.2177H8.65211C7.51345 43.2177 6.58154 44.1492 6.58154 45.2882V66.8026C6.58154 67.9413 7.51307 68.8732 8.65211 68.8732H41.6888C42.8274 68.8732 43.7593 67.9417 43.7593 66.8026V45.2882C43.7593 44.1496 42.8278 43.2177 41.6888 43.2177Z" fill="#F6597B"/>
<path d="M40.7659 68.8728H4.17383V69.9883H40.7659V68.8728Z" fill="#F83636"/>
<path fill-rule="evenodd" clip-rule="evenodd" d="M4.78647 47.5382H0.907201C0.408183 47.5382 0 47.9464 0 48.4454V54.8273C0 55.3264 0.408183 55.7345 0.907201 55.7345H4.78647C5.28548 55.7345 5.69367 55.3264 5.69367 54.8273V48.4454C5.69367 47.9464 5.28548 47.5382 4.78647 47.5382Z" fill="#F83636"/>
<path fill-rule="evenodd" clip-rule="evenodd" d="M4.97339 55.7148C5.38347 55.6281 5.6936 55.2621 5.6936 54.8273V48.4454C5.6936 48.0106 5.38347 47.6446 4.97339 47.558C4.5633 47.6446 4.25317 48.0106 4.25317 48.4454V54.8273C4.25317 55.2621 4.5633 55.6281 4.97339 55.7148Z" fill="#FF9696"/>
<path fill-rule="evenodd" clip-rule="evenodd" d="M24.5553 49.4317H20.3396V53.6473H16.124V57.8629H20.3396V62.0785H24.5553V57.8629H28.7709V53.6473H24.5553V49.4317Z" fill="white"/>
<path fill-rule="evenodd" clip-rule="evenodd" d="M40.4982 44.5924H15.1246C14.5276 44.5924 14.0388 45.0807 14.0388 45.6782C14.0388 46.2753 14.5276 46.764 15.1246 46.764H40.4982C41.0952 46.764 41.584 46.2753 41.584 45.6782C41.584 45.0811 41.0952 44.5924 40.4982 44.5924Z" fill="white"/>
<path fill-rule="evenodd" clip-rule="evenodd" d="M12.2775 44.5924H9.04848C8.4514 44.5924 7.96265 45.0807 7.96265 45.6782C7.96265 46.2753 8.4514 46.764 9.04848 46.764H12.2775C12.8745 46.764 13.3633 46.2753 13.3633 45.6782C13.3633 45.0811 12.8745 44.5924 12.2775 44.5924Z" fill="white"/>
<path fill-rule="evenodd" clip-rule="evenodd" d="M27.5002 8.44833H70.3861C71.3199 8.44833 72.0838 9.21225 72.0838 10.1461V68.3749C72.0838 69.3087 71.3199 70.0727 70.3861 70.0727H27.5002C26.5664 70.0727 25.8025 69.3087 25.8025 68.3749V10.1464C25.8025 9.21263 26.5664 8.44833 27.5002 8.44833Z" fill="#7D83FF"/>
<path d="M69.4319 11.1943H28.5801V67.0128H69.4319V11.1943Z" fill="white"/>
<path d="M36.5795 30.2018H32.234C32.0827 30.2018 31.9451 30.2637 31.8448 30.3641H31.8436C31.7444 30.4633 31.6829 30.6009 31.6829 30.7533V35.0989C31.6829 35.2501 31.7448 35.3877 31.8452 35.488C31.9451 35.588 32.0831 35.6503 32.2343 35.6503H36.5799C36.732 35.6503 36.8699 35.5887 36.9691 35.4896V35.4884C37.0691 35.3885 37.1314 35.2505 37.1314 35.0992V30.7536C37.1314 30.6016 37.0698 30.4637 36.9706 30.3645L36.9695 30.3633C36.8703 30.2641 36.7327 30.2026 36.5803 30.2026M32.234 29.5424H36.5795C36.9113 29.5424 37.2139 29.6784 37.4335 29.8977L37.4347 29.8989C37.654 30.1186 37.79 30.4211 37.79 30.7529V35.0985C37.79 35.4318 37.654 35.7347 37.4347 35.954L37.4339 35.9532C37.2142 36.1729 36.9113 36.3093 36.5792 36.3093H32.2336C31.9003 36.3093 31.5974 36.1733 31.3781 35.954C31.1588 35.7347 31.0227 35.4318 31.0227 35.0985V30.7529C31.0227 30.4207 31.1591 30.1182 31.3788 29.8981L31.3781 29.8974C31.5974 29.6781 31.9003 29.542 32.2336 29.542L32.234 29.5424Z" fill="#88B9FF"/>
<path fill-rule="evenodd" clip-rule="evenodd" d="M40.9456 32.4054H66.0067C66.2827 32.4054 66.508 32.6311 66.508 32.9067C66.508 33.1822 66.2823 33.408 66.0067 33.408H40.9456C40.6697 33.408 40.4443 33.1822 40.4443 32.9067C40.4443 32.6311 40.6701 32.4054 40.9456 32.4054ZM40.9456 35.0441H66.0067C66.2827 35.0441 66.508 35.2699 66.508 35.5454C66.508 35.821 66.2823 36.0467 66.0067 36.0467H40.9456C40.6697 36.0467 40.4443 35.821 40.4443 35.5454C40.4443 35.2699 40.6701 35.0441 40.9456 35.0441ZM40.9456 38.8474H49.2108C49.4867 38.8474 49.7121 39.0731 49.7121 39.3487C49.7121 39.6242 49.4863 39.85 49.2108 39.85H40.9456C40.6697 39.85 40.4443 39.6242 40.4443 39.3487C40.4443 39.0731 40.6701 38.8474 40.9456 38.8474ZM40.9456 41.4865H66.0067C66.2827 41.4865 66.508 41.7123 66.508 41.9878C66.508 42.2633 66.2823 42.4891 66.0067 42.4891H40.9456C40.6697 42.4891 40.4443 42.2633 40.4443 41.9878C40.4443 41.7123 40.6701 41.4865 40.9456 41.4865ZM40.9456 44.1253H66.0067C66.2827 44.1253 66.508 44.351 66.508 44.6265C66.508 44.9021 66.2823 45.1279 66.0067 45.1279H40.9456C40.6697 45.1279 40.4443 44.9021 40.4443 44.6265C40.4443 44.351 40.6701 44.1253 40.9456 44.1253ZM40.9456 58.7819H46.531C46.8069 58.7819 47.0323 59.0076 47.0323 59.2832C47.0323 59.5587 46.8065 59.7845 46.531 59.7845H40.9456C40.6697 59.7845 40.4443 59.5587 40.4443 59.2832C40.4443 59.0076 40.6701 58.7819 40.9456 58.7819ZM40.9456 61.421H56.0891C56.365 61.421 56.5904 61.6467 56.5904 61.9223C56.5904 62.1978 56.3646 62.4236 56.0891 62.4236H40.9456C40.6697 62.4236 40.4443 62.1978 40.4443 61.9223C40.4443 61.6467 40.6701 61.421 40.9456 61.421ZM40.9456 48.136H49.2108C49.4867 48.136 49.7121 48.3618 49.7121 48.6373C49.7121 48.9129 49.4863 49.1386 49.2108 49.1386H40.9456C40.6697 49.1386 40.4443 48.9129 40.4443 48.6373C40.4443 48.3618 40.6701 48.136 40.9456 48.136ZM40.9456 50.7752H66.0067C66.2827 50.7752 66.508 51.0009 66.508 51.2764C66.508 51.552 66.2823 51.7777 66.0067 51.7777H40.9456C40.6697 51.7777 40.4443 51.552 40.4443 51.2764C40.4443 51.0009 40.6701 50.7752 40.9456 50.7752ZM40.9456 53.4139H66.0067C66.2827 53.4139 66.508 53.6397 66.508 53.9152C66.508 54.1907 66.2823 54.4165 66.0067 54.4165H40.9456C40.6697 54.4165 40.4443 54.1907 40.4443 53.9152C40.4443 53.6397 40.6701 53.4139 40.9456 53.4139ZM40.9456 29.7662H49.2108C49.4867 29.7662 49.7121 29.992 49.7121 30.2675C49.7121 30.5431 49.4863 30.7688 49.2108 30.7688H40.9456C40.6697 30.7688 40.4443 30.5431 40.4443 30.2675C40.4443 29.992 40.6701 29.7662 40.9456 29.7662Z" fill="#88B9FF"/>
<path d="M36.4822 39.4422H32.2091C32.0605 39.4422 31.9249 39.5033 31.8268 39.6014H31.8257C31.728 39.6991 31.6676 39.8344 31.6676 39.9837V44.2567C31.6676 44.4054 31.7287 44.541 31.8268 44.6391C31.9252 44.7375 32.0605 44.7983 32.2091 44.7983H36.4822C36.6319 44.7983 36.7672 44.7379 36.8645 44.6402V44.6391C36.9629 44.5407 37.0237 44.4054 37.0237 44.2567V39.9837C37.0237 39.834 36.9633 39.6987 36.8656 39.6014L36.8645 39.6003C36.7668 39.5026 36.6315 39.4422 36.4822 39.4422ZM32.2091 38.7938H36.4822C36.8086 38.7938 37.1058 38.9276 37.3221 39.143L37.3232 39.1442C37.5387 39.3604 37.6725 39.6577 37.6725 39.9841V44.2571C37.6725 44.5847 37.5387 44.8827 37.3232 45.0982L37.3225 45.0974C37.1062 45.3133 36.8086 45.4475 36.4822 45.4475H32.2091C31.8815 45.4475 31.5836 45.3137 31.3681 45.0982C31.1526 44.8827 31.0188 44.5847 31.0188 44.2571V39.9841C31.0188 39.6573 31.153 39.3601 31.3688 39.1438L31.3681 39.143C31.5836 38.9276 31.8815 38.7938 32.2091 38.7938Z" fill="#88B9FF"/>
<path fill-rule="evenodd" clip-rule="evenodd" d="M33.733 42.7335L35.9495 40.6667C36.1224 40.506 36.3942 40.5159 36.5549 40.6888C36.7157 40.8617 36.7062 41.1338 36.5329 41.2946L33.9899 43.6646L33.9834 43.67C33.8063 43.825 33.5346 43.8068 33.3795 43.6297L32.1546 42.2273C31.9995 42.0502 32.0174 41.778 32.1949 41.623C32.372 41.4679 32.6437 41.4861 32.7988 41.6629L33.733 42.7335Z" fill="#F48120"/>
<path d="M48.6601 1.33705C49.389 1.33705 49.98 1.92804 49.98 2.65699C49.98 3.38595 49.389 3.97694 48.6601 3.97694C47.9311 3.97694 47.3401 3.38595 47.3401 2.65699C47.3401 1.92804 47.9311 1.33705 48.6601 1.33705ZM34.7427 11.1943H62.5774V10.0936C62.5774 7.9554 60.5206 6.79204 58.2056 6.79204H55.1104V6.282C55.1104 5.28624 54.2956 4.4714 53.2998 4.4714H51.9852V4.4562V3.32514C51.9852 1.49629 50.4889 0 48.6601 0C46.8312 0 45.3349 1.49629 45.3349 3.32514V4.4714H44.0207C43.0249 4.4714 42.2101 5.28624 42.2101 6.282V6.79204H39.0833C35.7624 6.79204 34.7431 8.52131 34.7431 10.0936V11.1943H34.7427Z" fill="#7D83FF"/>
<path fill-rule="evenodd" clip-rule="evenodd" d="M33.733 33.6094L35.9495 31.5426C36.1224 31.3819 36.3942 31.3918 36.5549 31.5647C36.7157 31.7376 36.7062 32.0097 36.5329 32.1705L33.9899 34.5405L33.9834 34.5459C33.8063 34.7009 33.5346 34.6827 33.3795 34.506L32.1546 33.1035C31.9995 32.9264 32.0174 32.6543 32.1949 32.4992C32.372 32.3442 32.6437 32.3624 32.7988 32.5395L33.733 33.6102V33.6094Z" fill="#F48120"/>
<path fill-rule="evenodd" clip-rule="evenodd" d="M34.3461 57.208C36.1286 57.208 37.5736 58.653 37.5736 60.4355C37.5736 62.218 36.1286 63.663 34.3461 63.663C32.5636 63.663 31.1187 62.218 31.1187 60.4355C31.1187 58.653 32.5636 57.208 34.3461 57.208Z" fill="#F83636"/>
<path d="M35.8537 61.0223H35.1012C35.0587 61.0223 35.0226 61.036 34.9929 61.0638C34.9633 61.0915 34.9484 61.1284 34.9484 61.1755V61.9406C34.9484 61.9831 34.9348 62.0192 34.907 62.0489C34.8793 62.0785 34.8424 62.0933 34.7953 62.0933H33.8961C33.8535 62.0933 33.8174 62.0785 33.7877 62.0489C33.7581 62.0192 33.7433 61.9831 33.7433 61.9406V61.1755C33.7433 61.1287 33.7296 61.0915 33.7019 61.0638C33.6741 61.036 33.6372 61.0223 33.5901 61.0223H32.8441C32.7973 61.0223 32.7589 61.0075 32.7293 60.9779C32.6996 60.9482 32.6848 60.9121 32.6848 60.8695V60.0087C32.6848 59.962 32.6996 59.9247 32.7293 59.897C32.7589 59.8692 32.7973 59.8555 32.8441 59.8555H33.5901C33.6369 59.8555 33.6741 59.8407 33.7019 59.8111C33.7296 59.7814 33.7433 59.7453 33.7433 59.7028V58.9312C33.7433 58.8845 33.7581 58.8473 33.7877 58.8195C33.8174 58.7918 33.8535 58.7781 33.8961 58.7781H34.7953C34.842 58.7781 34.8793 58.7918 34.907 58.8195C34.9348 58.8473 34.9484 58.8845 34.9484 58.9312V59.7028C34.9484 59.7453 34.9633 59.7814 34.9929 59.8111C35.0226 59.8407 35.0587 59.8555 35.1012 59.8555H35.8537C35.9005 59.8555 35.9377 59.8692 35.9655 59.897C35.9932 59.9247 36.0069 59.962 36.0069 60.0087V60.8695C36.0069 60.9121 35.9932 60.9482 35.9655 60.9779C35.9377 61.0075 35.9005 61.0223 35.8537 61.0223Z" fill="white"/>
<path fill-rule="evenodd" clip-rule="evenodd" d="M31.9053 15.5364H66.2353C66.4857 15.5364 66.6906 15.7413 66.6906 15.9917V25.3564C66.6906 25.6069 66.4857 25.8117 66.2353 25.8117H31.9053C31.6548 25.8117 31.45 25.6069 31.45 25.3564V15.9917C31.45 15.7413 31.6548 15.5364 31.9053 15.5364Z" fill="#7D83FF"/>
<path d="M60.4066 20.2192V20.3811C60.4066 20.4069 60.4157 20.4286 60.4336 20.4464C60.4515 20.4643 60.4735 20.4734 60.499 20.4734H61.543C61.5688 20.4734 61.5905 20.4825 61.6084 20.5004C61.6262 20.5183 61.6353 20.5403 61.6353 20.5658V21.0975C61.6353 21.1233 61.6262 21.145 61.6084 21.1628C61.5905 21.1807 61.5685 21.1898 61.543 21.1898H60.499C60.4731 21.1898 60.4515 21.199 60.4336 21.2168C60.4157 21.2347 60.4066 21.2567 60.4066 21.2822V21.4285C60.4066 21.4543 60.4157 21.476 60.4336 21.4939C60.4515 21.5117 60.4735 21.5209 60.499 21.5209H61.6973C61.7231 21.5209 61.7448 21.53 61.7627 21.5478C61.7805 21.5657 61.7896 21.5878 61.7896 21.6132V22.1449C61.7896 22.1708 61.7805 22.1924 61.7627 22.2103C61.7448 22.2282 61.7228 22.2373 61.6973 22.2373H59.7362C59.7103 22.2373 59.6887 22.2282 59.6708 22.2103C59.653 22.1924 59.6438 22.1704 59.6438 22.1449V19.5096C59.6438 19.4837 59.653 19.4621 59.6708 19.4442C59.6887 19.4264 59.7107 19.4172 59.7362 19.4172H61.6973C61.7231 19.4172 61.7448 19.4264 61.7627 19.4442C61.7805 19.4621 61.7896 19.4841 61.7896 19.5096V20.0337C61.7896 20.0595 61.7805 20.0812 61.7627 20.0991C61.7448 20.1169 61.7228 20.126 61.6973 20.126H60.499C60.4731 20.126 60.4515 20.1352 60.4336 20.153C60.4157 20.1709 60.4066 20.1929 60.4066 20.2184M59.3588 21.4905C59.2843 21.6106 59.2022 21.7204 59.1121 21.8184C59.0221 21.9165 58.9213 22.0001 58.8096 22.0697C58.6979 22.1385 58.574 22.1924 58.4379 22.2301C58.3018 22.2684 58.1513 22.2878 57.9872 22.2878C57.7815 22.2878 57.5889 22.2494 57.4091 22.1723C57.2293 22.0951 57.072 21.991 56.937 21.8603C56.8021 21.7291 56.6961 21.5752 56.6193 21.3981C56.5422 21.221 56.5038 21.0321 56.5038 20.8318C56.5038 20.6315 56.5422 20.4426 56.6193 20.2655C56.6965 20.0884 56.8025 19.9341 56.937 19.803C57.072 19.6719 57.2293 19.5681 57.4091 19.491C57.5889 19.4138 57.7815 19.3754 57.9872 19.3754C58.1567 19.3754 58.3094 19.3948 58.4455 19.4332C58.5816 19.4716 58.7051 19.5255 58.8153 19.5951C58.9259 19.6643 59.0251 19.7486 59.114 19.8475C59.2026 19.9463 59.2843 20.055 59.3588 20.1732C59.3717 20.1937 59.3744 20.2157 59.3664 20.2385C59.3588 20.2617 59.3432 20.2784 59.32 20.2887L58.7727 20.5046C58.7469 20.5148 58.7214 20.5148 58.6956 20.5046C58.6697 20.4943 58.6507 20.4787 58.6378 20.4582C58.5633 20.34 58.4736 20.2496 58.368 20.1865C58.2627 20.1238 58.1354 20.0922 57.9864 20.0922C57.8887 20.0922 57.7967 20.1127 57.7108 20.1538C57.625 20.1948 57.5497 20.2499 57.4855 20.3184C57.4212 20.3864 57.3711 20.4654 57.3353 20.5559C57.2992 20.646 57.2814 20.7391 57.2814 20.8341C57.2814 20.9291 57.2992 21.0253 57.3353 21.1142C57.3715 21.2028 57.4212 21.281 57.4855 21.3479C57.5497 21.4148 57.625 21.4692 57.7108 21.5102C57.7967 21.5513 57.8887 21.5718 57.9864 21.5718C58.1278 21.5718 58.2555 21.5376 58.3699 21.4696C58.4843 21.4015 58.5747 21.3137 58.6416 21.2058C58.6545 21.1853 58.6732 21.1697 58.6975 21.1594C58.7218 21.1492 58.7469 21.1492 58.7727 21.1594L59.32 21.3753C59.3432 21.3856 59.3584 21.4015 59.3664 21.4236C59.374 21.4452 59.3713 21.468 59.3588 21.4908V21.4905ZM56.0568 19.51V22.1453C56.0568 22.1711 56.0477 22.1928 56.0298 22.2107C56.012 22.2285 55.9899 22.2377 55.9645 22.2377H55.3955C55.3697 22.2377 55.3427 22.2301 55.3146 22.2145C55.2865 22.1989 55.2652 22.181 55.2496 22.1605L54.2458 20.7463C54.2303 20.7258 54.2143 20.7174 54.1976 20.7212C54.1809 20.725 54.1725 20.7398 54.1725 20.7657V22.1449C54.1725 22.1708 54.1634 22.1924 54.1455 22.2103C54.1277 22.2282 54.1052 22.2373 54.0794 22.2373H53.5028C53.477 22.2373 53.4546 22.2282 53.4367 22.2103C53.4188 22.1924 53.4097 22.1704 53.4097 22.1449V19.5096C53.4097 19.4837 53.4188 19.4621 53.4367 19.4442C53.4546 19.4264 53.4766 19.4172 53.5021 19.4172H54.0801C54.106 19.4172 54.1326 19.4245 54.1611 19.4385C54.1892 19.4526 54.2113 19.4701 54.2265 19.4906L55.2283 20.9048C55.2439 20.9253 55.2598 20.9344 55.2766 20.9318C55.2933 20.9291 55.3017 20.915 55.3017 20.8896V19.5103C55.3017 19.4845 55.3108 19.4628 55.3286 19.445C55.3465 19.4271 55.3685 19.418 55.394 19.418H55.9645C55.9903 19.418 56.012 19.4271 56.0298 19.445C56.0477 19.4628 56.0568 19.4849 56.0568 19.5103V19.51ZM51.4406 21.1822H51.7834C51.8093 21.1822 51.8279 21.1739 51.8393 21.1571C51.8507 21.1404 51.8503 21.1207 51.8374 21.0975C51.8116 21.0332 51.7808 20.958 51.7451 20.8721C51.709 20.7862 51.6755 20.7056 51.6447 20.6311C51.6345 20.608 51.6231 20.5966 51.6101 20.5966C51.5972 20.5966 51.5858 20.608 51.5756 20.6311L51.3829 21.0975C51.3726 21.1207 51.3726 21.1404 51.3829 21.1571C51.3931 21.1739 51.4125 21.1822 51.4406 21.1822ZM51.2134 19.5062C51.2236 19.483 51.2411 19.4632 51.2654 19.4465C51.2897 19.4298 51.316 19.4214 51.3445 19.4214H51.8838C51.9096 19.4214 51.9343 19.4298 51.959 19.4465C51.9834 19.4632 52.0008 19.483 52.0111 19.5062L53.1361 22.1263C53.1463 22.1495 53.1444 22.1738 53.1304 22.1996C53.1163 22.2255 53.0886 22.238 53.0475 22.238H52.3885C52.3604 22.238 52.3338 22.2297 52.3094 22.2129C52.2851 22.1962 52.2665 22.1765 52.2536 22.1533L52.1494 21.9222C52.1365 21.899 52.1179 21.8793 52.0936 21.8625C52.0693 21.8458 52.0442 21.8374 52.0183 21.8374H51.2054C51.1773 21.8374 51.1506 21.8458 51.1263 21.8625C51.102 21.8793 51.0845 21.899 51.0743 21.9222L50.9663 22.1533C50.9561 22.1765 50.9386 22.1962 50.9142 22.2129C50.8899 22.2297 50.8648 22.238 50.839 22.238H50.1762C50.1633 22.238 50.15 22.2354 50.1359 22.2304C50.1218 22.2251 50.11 22.2175 50.1013 22.2072C50.0922 22.197 50.0865 22.1841 50.0838 22.1689C50.0812 22.1533 50.085 22.1354 50.0952 22.1149L51.2126 19.5065L51.2134 19.5062ZM48.4078 20.7201H48.814C48.8448 20.7201 48.8771 20.7144 48.9098 20.7026C48.9433 20.6912 48.974 20.6729 49.0022 20.6486C49.0299 20.6243 49.0531 20.5939 49.071 20.5582C49.0888 20.5221 49.0979 20.4799 49.0979 20.4309C49.0979 20.405 49.0934 20.375 49.0846 20.3404C49.0755 20.3058 49.0603 20.2724 49.0383 20.2401C49.017 20.2081 48.9873 20.1812 48.9505 20.1591C48.9132 20.1374 48.8684 20.1264 48.8144 20.1264H48.4081C48.3831 20.1264 48.3614 20.1355 48.3431 20.1534C48.3253 20.1713 48.3162 20.1933 48.3162 20.2188V20.6273C48.3162 20.6532 48.3253 20.6748 48.3431 20.6927C48.361 20.7106 48.3831 20.7197 48.4081 20.7197L48.4078 20.7201ZM48.2227 22.238H47.6461C47.6203 22.238 47.5979 22.2289 47.58 22.211C47.5621 22.1932 47.553 22.1711 47.553 22.1457V19.5103C47.553 19.4845 47.5621 19.4628 47.58 19.445C47.5979 19.4271 47.6199 19.418 47.6454 19.418H48.8437C48.9927 19.418 49.1303 19.4431 49.2561 19.4932C49.3819 19.5434 49.489 19.6133 49.5776 19.7034C49.6661 19.7931 49.7357 19.8999 49.7859 20.023C49.836 20.1462 49.8611 20.2826 49.8611 20.4316C49.8611 20.5137 49.8516 20.5954 49.8322 20.6764C49.8128 20.7573 49.7855 20.8337 49.7494 20.9055C49.7133 20.9774 49.6711 21.0424 49.622 21.1001C49.5734 21.1579 49.5179 21.2062 49.4563 21.2446C49.4358 21.2598 49.4225 21.2784 49.4161 21.3004C49.4096 21.3225 49.4142 21.3434 49.4297 21.3639C49.5274 21.4924 49.63 21.6246 49.738 21.7607C49.8459 21.8967 49.9421 22.0214 50.0268 22.1343C50.042 22.1548 50.0462 22.1772 50.0382 22.2015C50.0306 22.2259 50.0139 22.238 49.988 22.238H49.2713C49.2454 22.238 49.218 22.2308 49.1884 22.2168C49.1588 22.2027 49.1363 22.1852 49.1211 22.1647C49.0394 22.0567 48.9581 21.9477 48.8779 21.8371C48.7969 21.7265 48.7175 21.6147 48.6385 21.5019C48.6229 21.4813 48.6012 21.4639 48.5731 21.4498C48.545 21.4357 48.5184 21.4285 48.4929 21.4285H48.4081C48.3831 21.4285 48.3614 21.4376 48.3431 21.4555C48.3253 21.4734 48.3162 21.4954 48.3162 21.5209V22.1449C48.3162 22.1708 48.307 22.1924 48.2892 22.2103C48.2713 22.2282 48.2489 22.2373 48.223 22.2373L48.2227 22.238ZM44.5129 19.5138C44.5129 19.4879 44.522 19.4663 44.5399 19.4484C44.5578 19.4305 44.579 19.4214 44.6049 19.4214H45.1841C45.2099 19.4214 45.2308 19.4305 45.2491 19.4484C45.2669 19.4663 45.2761 19.4883 45.2761 19.5138V21.0743C45.2761 21.1742 45.292 21.2575 45.3243 21.3229C45.357 21.3882 45.3969 21.4395 45.4444 21.4772C45.4919 21.5144 45.5433 21.5406 45.5972 21.5562C45.6512 21.5718 45.7006 21.5794 45.7443 21.5794C45.788 21.5794 45.8374 21.5718 45.8914 21.5562C45.9454 21.5406 45.9959 21.5144 46.0423 21.4772C46.0886 21.4399 46.1278 21.3886 46.1605 21.3229C46.1924 21.2575 46.2087 21.1746 46.2087 21.0743V19.5138C46.2087 19.4879 46.2179 19.4663 46.2357 19.4484C46.2536 19.4305 46.2749 19.4214 46.3007 19.4214H46.8799C46.9058 19.4214 46.9267 19.4305 46.9449 19.4484C46.9628 19.4663 46.9719 19.4883 46.9719 19.5138V21.0743C46.9719 21.2567 46.943 21.4224 46.8852 21.5714C46.8275 21.7204 46.7454 21.8477 46.6374 21.953C46.5295 22.0583 46.3999 22.14 46.249 22.1977C46.0974 22.2555 45.9298 22.2844 45.7451 22.2844C45.5604 22.2844 45.3924 22.2555 45.2407 22.1977C45.0898 22.14 44.9602 22.0583 44.8523 21.953C44.7444 21.8477 44.6615 21.7204 44.6026 21.5714C44.5437 21.4224 44.5141 21.2567 44.5141 21.0743V19.5138H44.5129ZM42.2124 21.2708C42.3511 21.3609 42.4887 21.4312 42.6248 21.4829C42.7608 21.5342 42.8882 21.56 43.0064 21.56C43.1246 21.56 43.2055 21.544 43.2644 21.5117C43.3233 21.4798 43.353 21.4315 43.353 21.3673C43.353 21.3339 43.3401 21.3076 43.3146 21.2883C43.2887 21.2689 43.2549 21.2529 43.2123 21.24C43.1698 21.2271 43.1204 21.2168 43.0641 21.2092C43.0079 21.2016 42.9497 21.1914 42.8908 21.1784C42.8342 21.1682 42.7681 21.156 42.6924 21.1419C42.6168 21.1279 42.5389 21.1074 42.4595 21.0804C42.38 21.0534 42.301 21.0196 42.2223 20.9781C42.144 20.9371 42.0741 20.8843 42.0121 20.82C41.9506 20.7558 41.9011 20.6794 41.8639 20.5909C41.8267 20.5023 41.808 20.3974 41.808 20.2769C41.808 20.0998 41.8426 19.9531 41.9122 19.8376C41.9817 19.722 42.0695 19.6301 42.1763 19.562C42.2827 19.494 42.4017 19.4465 42.5328 19.4195C42.6639 19.3925 42.7909 19.3792 42.9144 19.3792C43.1303 19.3792 43.3233 19.4108 43.4944 19.4735C43.665 19.5366 43.8288 19.6282 43.9858 19.749C44.0063 19.7669 44.0177 19.7889 44.0204 19.8144C44.023 19.8402 44.0166 19.863 44.001 19.8836L43.7003 20.3111C43.6851 20.3317 43.6642 20.3446 43.6388 20.3495C43.6129 20.3548 43.5901 20.3495 43.5696 20.3339C43.4385 20.2518 43.3165 20.1933 43.2036 20.1587C43.0907 20.1241 42.9866 20.1067 42.8916 20.1067C42.8635 20.1067 42.8304 20.1074 42.7935 20.1086C42.7563 20.1097 42.7209 20.115 42.6875 20.1241C42.654 20.1333 42.6267 20.1481 42.6046 20.1686C42.583 20.1891 42.5719 20.2173 42.5719 20.2534C42.5719 20.2895 42.5989 20.3214 42.6529 20.3495C42.7069 20.3776 42.7684 20.4023 42.838 20.4229C42.9072 20.4434 42.9741 20.4594 43.0383 20.4711C43.1025 20.4825 43.1436 20.4898 43.1614 20.4924C43.2538 20.5103 43.3553 20.5369 43.4658 20.5715C43.5764 20.6061 43.6798 20.6574 43.776 20.7258C43.8721 20.7938 43.9531 20.8824 44.0188 20.9918C44.0842 21.1009 44.1173 21.2377 44.1173 21.4023C44.1173 21.5562 44.0903 21.6892 44.0363 21.801C43.9824 21.9127 43.9071 22.0047 43.8109 22.0765C43.7148 22.1483 43.5989 22.2015 43.4643 22.2365C43.3294 22.2711 43.1797 22.2886 43.0155 22.2886C42.8821 22.2886 42.7574 22.2776 42.6419 22.2559C42.5263 22.2342 42.4184 22.2038 42.3181 22.1654C42.2177 22.1271 42.1246 22.0814 42.0387 22.0286C41.9528 21.9758 41.8738 21.9199 41.8019 21.861C41.7814 21.8458 41.7696 21.8245 41.7674 21.7975C41.7647 21.7706 41.7712 21.7466 41.7867 21.7261L42.0836 21.2985C42.0992 21.278 42.1197 21.2651 42.1451 21.2601C42.171 21.2552 42.1938 21.259 42.2143 21.2715L42.2124 21.2708ZM41.3147 19.51V22.1453C41.3147 22.1711 41.3056 22.1928 41.2877 22.2107C41.2699 22.2285 41.2478 22.2377 41.2224 22.2377H40.6534C40.6276 22.2377 40.6006 22.2301 40.5725 22.2145C40.5443 22.1989 40.5231 22.181 40.5075 22.1605L39.5037 20.7463C39.4881 20.7258 39.4722 20.7174 39.4555 20.7212C39.4387 20.725 39.4304 20.7398 39.4304 20.7657V22.1449C39.4304 22.1708 39.4213 22.1924 39.4034 22.2103C39.3855 22.2282 39.3631 22.2373 39.3373 22.2373H38.7607C38.7349 22.2373 38.7124 22.2282 38.6946 22.2103C38.6767 22.1924 38.6676 22.1704 38.6676 22.1449V19.5096C38.6676 19.4837 38.6767 19.4621 38.6946 19.4442C38.7124 19.4264 38.7345 19.4172 38.76 19.4172H39.338C39.3639 19.4172 39.3905 19.4245 39.419 19.4385C39.4471 19.4526 39.4691 19.4701 39.4843 19.4906L40.4862 20.9048C40.5018 20.9253 40.5177 20.9344 40.5345 20.9318C40.5512 20.9291 40.5595 20.915 40.5595 20.8896V19.5103C40.5595 19.4845 40.5687 19.4628 40.5865 19.445C40.6044 19.4271 40.6264 19.418 40.6519 19.418H41.2224C41.2482 19.418 41.2699 19.4271 41.2877 19.445C41.3056 19.4628 41.3147 19.4849 41.3147 19.5103V19.51ZM38.0557 22.238H37.4765C37.4488 22.238 37.4263 22.2289 37.4096 22.211C37.3929 22.1932 37.3845 22.1711 37.3845 22.1457V19.5141C37.3845 19.4883 37.3929 19.4666 37.4096 19.4488C37.4263 19.4309 37.4488 19.4218 37.4765 19.4218H38.0557C38.0816 19.4218 38.1025 19.4309 38.1207 19.4488C38.1386 19.4666 38.1477 19.4887 38.1477 19.5141V22.1457C38.1477 22.1715 38.1386 22.1932 38.1207 22.211C38.1028 22.2289 38.0816 22.238 38.0557 22.238Z" fill="white"/>
<path d="M36.4822 48.7312H32.2091C32.0605 48.7312 31.9249 48.7924 31.8268 48.8904H31.8257C31.728 48.9881 31.6676 49.1234 31.6676 49.2728V53.5458C31.6676 53.6944 31.7287 53.8301 31.8268 53.9281C31.9252 54.0266 32.0605 54.0874 32.2091 54.0874H36.4822C36.6319 54.0874 36.7672 54.0269 36.8645 53.9293V53.9281C36.9629 53.8297 37.0237 53.6944 37.0237 53.5458V49.2728C37.0237 49.1234 36.9633 48.9877 36.8656 48.8904L36.8645 48.8893C36.7668 48.7916 36.6315 48.7312 36.4822 48.7312ZM32.2091 48.0824H36.4822C36.8086 48.0824 37.1058 48.2162 37.3221 48.4317L37.3232 48.4329C37.5387 48.6491 37.6725 48.9463 37.6725 49.2728V53.5458C37.6725 53.8734 37.5387 54.1714 37.3232 54.3869L37.3225 54.3861C37.1062 54.602 36.8086 54.7361 36.4822 54.7361H32.2091C31.8815 54.7361 31.5836 54.6024 31.3681 54.3869C31.1526 54.1714 31.0188 53.8734 31.0188 53.5458V49.2728C31.0188 48.9459 31.153 48.6487 31.3688 48.4325L31.3681 48.4317C31.5836 48.2162 31.8815 48.0824 32.2091 48.0824Z" fill="#88B9FF"/>
<path fill-rule="evenodd" clip-rule="evenodd" d="M33.733 52.0221L35.9495 49.9554C36.1224 49.795 36.3942 49.8045 36.5549 49.9774C36.7157 50.1503 36.7062 50.4225 36.5329 50.5832L33.9899 52.9533L33.9834 52.9586C33.8063 53.1137 33.5346 53.0954 33.3795 52.9183L32.1546 51.5159C31.9995 51.3388 32.0174 51.0667 32.1949 50.9116C32.372 50.7565 32.6437 50.7748 32.7988 50.9515L33.733 52.0221Z" fill="#F48120"/>
<path fill-rule="evenodd" clip-rule="evenodd" d="M83.8095 4.18332C79.1701 9.21454 76.336 15.9359 76.336 23.3193C76.336 22.1122 79.2701 21.1138 83.0889 20.9458V20.9291H84.8843C88.9376 21.0302 92.1233 22.0617 92.1233 23.3193C92.1233 15.9693 89.464 9.20656 84.8619 4.18294H84.8919C89.7464 9.1754 92.8807 16.2924 92.8807 23.3193C92.8807 21.9948 95.3306 20.9207 98.3528 20.9207C101.375 20.9207 103.825 21.9944 103.825 23.3193H103.832C103.832 12.9239 95.7323 4.42048 85.5 3.77438C85.4662 3.7721 85.1796 3.76412 84.887 3.75613L84.3484 1.19492L83.8099 3.75005C83.4629 3.76032 83.0224 3.77286 82.9851 3.77514C72.8417 4.42048 64.7982 12.7867 64.6655 23.0616C64.9589 21.858 67.2826 20.9207 70.1065 20.9207C73.1287 20.9207 75.5786 21.9944 75.5786 23.3193C75.5786 16.2464 78.8455 9.14994 83.8095 4.15178V4.18332Z" fill="#7D83FF"/>
<path d="M84.5256 20.9291H83.8286V40.1529H84.5256V20.9291Z" fill="#8C9EF3"/>
<path fill-rule="evenodd" clip-rule="evenodd" d="M82.9851 3.77515C72.8417 4.42049 64.7982 12.7867 64.6655 23.0616C64.9589 21.858 67.2826 20.9208 70.1065 20.9208C73.1287 20.9208 75.5786 21.9944 75.5786 23.3193C75.5786 16.2612 78.8319 9.17959 83.7787 4.18296H83.7506V3.75159C83.4146 3.76147 83.0201 3.77287 82.9851 3.77515Z" fill="#C6D4FF"/>
<path fill-rule="evenodd" clip-rule="evenodd" d="M84.892 4.18294C89.7465 9.1754 92.8809 16.2924 92.8809 23.3193C92.8809 21.9948 95.3311 20.9207 98.353 20.9207C101.375 20.9207 103.825 21.9944 103.825 23.3193H103.832C103.832 12.9239 95.7325 4.42048 85.5001 3.77438C85.4667 3.7721 85.1832 3.76412 84.892 3.75613H84.8871L84.3486 1.19492L83.81 3.75005L83.7507 3.75195V4.18332H83.7792C83.7895 4.17306 83.7998 4.16242 83.81 4.15178V4.18332H84.892V4.18294Z" fill="#C6D4FF"/>
<path fill-rule="evenodd" clip-rule="evenodd" d="M84.099 70.46C83.6767 70.1901 81.3435 68.7972 80.9342 68.5049C71.6174 61.8512 65.7303 49.5533 66.6478 38.1606L66.8739 35.3527L69.6567 34.9149C74.5393 34.1464 78.1271 32.6726 82.4168 30.2539L84.1735 29.2631L85.9301 30.2539C90.2426 32.6859 93.8201 34.1027 98.7221 34.9202L101.475 35.3794L101.699 38.161C102.657 50.0542 96.1989 62.9336 86.165 69.349L84.099 70.4607V70.46Z" fill="#7D83FF"/>
<path fill-rule="evenodd" clip-rule="evenodd" d="M84.1733 29.2627L85.9304 30.2535C90.2429 32.6855 93.8204 34.1023 98.7224 34.9198L101.475 35.379L101.699 38.1606C102.657 50.0538 96.1992 62.9332 86.1652 69.3486L84.1737 70.42V29.263L84.1733 29.2627Z" fill="#C6D4FF"/>
<path fill-rule="evenodd" clip-rule="evenodd" d="M71.5465 39.6132C71.3432 43.5996 72.131 47.6245 73.6144 51.3183C75.7294 56.5851 79.4217 61.5475 84.1732 64.7313C88.9247 61.5479 92.617 56.5851 94.732 51.3186C96.2161 47.6233 97.004 43.5958 96.7995 39.6079C94.6214 39.2122 92.5007 38.6703 90.4149 37.9018C88.2471 37.1029 86.189 36.0893 84.1732 34.9708C82.0563 36.1459 79.893 37.2082 77.61 38.0302C75.628 38.744 73.614 39.2533 71.5465 39.6136" fill="#2F2F66"/>
<path fill-rule="evenodd" clip-rule="evenodd" d="M71.5465 39.6132C71.3432 43.5992 72.131 47.6245 73.6144 51.3179C75.7294 56.5847 79.4217 61.5472 84.1732 64.7309V34.97C82.0563 36.1451 79.893 37.2074 77.61 38.0295C75.628 38.7432 73.614 39.2525 71.5465 39.6132Z" fill="#2F2F66"/>
<path fill-rule="evenodd" clip-rule="evenodd" d="M84.1736 36.3101V63.3004C88.4086 60.244 91.7109 55.6901 93.6424 50.8804C94.9498 47.6252 95.697 44.0998 95.6556 40.5831C93.7366 40.1939 91.85 39.6816 90.009 39.0032C87.9939 38.2606 86.0591 37.3328 84.1736 36.3097" fill="#8C9EF3"/>
<path fill-rule="evenodd" clip-rule="evenodd" d="M66.8168 49.421C72.7758 49.421 77.6063 54.2516 77.6063 60.2105C77.6063 66.1695 72.7758 71 66.8168 71C60.8579 71 56.0273 66.1695 56.0273 60.2105C56.0273 54.2516 60.8579 49.421 66.8168 49.421Z" fill="#F9C4C7"/>
<path fill-rule="evenodd" clip-rule="evenodd" d="M66.7887 67.8926C55.4659 58.9924 60.0886 51.446 66.7887 56.1842C74.3245 51.6204 77.5713 60.1056 66.7887 67.8926Z" fill="#F83636"/>
<path d="M60.0769 61.8736H63.1664L63.83 59.7867L64.4024 61.5871L65.6881 57.5432L67.5952 63.5413L69.1451 61.2792H73.5743V61.9436H69.4936L67.3759 65.0346L65.6881 59.7267L64.4024 63.7709L63.83 61.9702L63.6495 62.538H60.0769V61.8736Z" fill="#F9C4C7"/>
<path fill-rule="evenodd" clip-rule="evenodd" d="M84.1733 41.4865C80.446 41.4865 77.4246 44.508 77.4246 48.2352C77.4246 51.9625 80.446 54.9839 84.1733 54.9839C87.9005 54.9839 90.922 51.9625 90.922 48.2352C90.922 44.508 87.9005 41.4865 84.1733 41.4865Z" fill="#47A046"/>
<path fill-rule="evenodd" clip-rule="evenodd" d="M84.1732 41.4865C80.5516 41.4865 77.5967 44.3392 77.4321 47.9202C77.5967 51.5011 80.5516 54.3538 84.1732 54.3538C87.7948 54.3538 90.7498 51.5011 90.9143 47.9202C90.7498 44.3392 87.7948 41.4865 84.1732 41.4865Z" fill="#78C044"/>
<path fill-rule="evenodd" clip-rule="evenodd" d="M84.1734 44.2009C84.5846 44.2009 84.9209 44.5372 84.9209 44.9485V47.1726H87.145C87.5563 47.1726 87.8926 47.5089 87.8926 47.9202C87.8926 48.3314 87.5563 48.6677 87.145 48.6677H84.9209V50.8918C84.9209 51.3031 84.5846 51.6394 84.1734 51.6394C83.7621 51.6394 83.4258 51.3031 83.4258 50.8918V48.6677H81.2017C80.7905 48.6677 80.4541 48.3314 80.4541 47.9202C80.4541 47.5089 80.7905 47.1726 81.2017 47.1726H83.4258V44.9485C83.4258 44.5372 83.7621 44.2009 84.1734 44.2009Z" fill="white"/>
</svg>
