<svg width="127" height="76" viewBox="0 0 127 76" fill="none" xmlns="http://www.w3.org/2000/svg">
<path d="M7.94152 62.4932C8.12117 62.1876 8.44912 62 8.80356 62H118.763C119.129 62 119.466 62.1997 119.641 62.5208L126.192 74.5208C126.556 75.1872 126.074 76 125.315 76H1.74801C0.974683 76 0.494013 75.1598 0.885969 74.4932L7.94152 62.4932Z" fill="#F83636" fill-opacity="0.25"/>
<path d="M86.781 19.869H77.5781V19.2856C77.5781 16.7441 79.6383 14.6839 82.1798 14.6839C84.7213 14.6839 86.7815 16.7441 86.7815 19.2856V19.869H86.781Z" fill="#F83636"/>
<path d="M80.2908 19.869H71.0879V19.2856C71.0879 16.7441 73.148 14.6839 75.6895 14.6839C78.231 14.6839 80.2912 16.7441 80.2912 19.2856L80.2908 19.869Z" fill="#F83636"/>
<path d="M119.175 50.1623V56.6853C119.175 57.2399 119.061 57.7666 118.858 58.2483C118.251 59.6697 116.838 60.6696 115.194 60.6696H105.91C105.428 59.0742 104.469 57.6897 103.185 56.6934C103.181 56.6893 103.181 56.6893 103.177 56.6853C103.027 56.5679 102.869 56.4545 102.711 56.3493C101.448 55.4947 99.9255 55.0008 98.2855 55.0008C96.9982 55.0008 95.7792 55.3044 94.706 55.8509C94.4105 55.9967 94.1271 56.1671 93.8559 56.3489C93.698 56.4541 93.5401 56.5675 93.3903 56.6849C92.1066 57.6848 91.1431 59.0697 90.6614 60.6692H50.6775C50.2848 59.3612 49.5683 58.1953 48.6165 57.2678C48.406 57.0614 48.1834 56.8671 47.9486 56.6849C47.7984 56.5675 47.6409 56.4541 47.4826 56.3489C46.2151 55.4943 44.693 55.0004 43.0534 55.0004C41.4135 55.0004 39.8909 55.4943 38.6234 56.3489C38.4655 56.4541 38.3076 56.5675 38.1578 56.6849C37.2871 57.365 36.5624 58.2196 36.0361 59.1993C35.7852 59.6608 35.5823 60.1547 35.4289 60.6692H28.6792C28.2825 60.6692 27.902 60.6125 27.5413 60.5032C25.8973 60.0134 24.699 58.4868 24.699 56.6853L24.7111 56.3493L24.8285 53.041L24.9378 49.9923L24.9824 48.7899L25.1686 43.6033L25.3143 39.4814L25.8163 25.4432L25.9135 22.7426C25.9256 22.1759 26.0511 21.637 26.2778 21.1512C26.4802 20.71 26.7595 20.3092 27.1036 19.9768C27.8202 19.2643 28.8043 18.8271 29.8937 18.8271H88.9117C89.9687 18.8271 90.9808 19.2481 91.7261 19.993L92.2564 20.5683L92.7952 21.1512L94.2611 22.7426L110.805 40.6959L115.142 43.9389L117.251 45.5181C117.364 45.6311 117.47 45.7449 117.571 45.8663C117.656 45.9594 117.733 46.0566 117.81 46.1578C117.867 46.2306 117.919 46.2995 117.972 46.3764C118.024 46.4492 118.073 46.5221 118.122 46.599C118.223 46.7529 118.316 46.9067 118.401 47.0686C118.45 47.1617 118.498 47.2589 118.543 47.3561C118.729 47.7406 118.871 48.1455 118.976 48.5584C119 48.6636 119.024 48.7689 119.045 48.8742C119.069 48.9794 119.085 49.0847 119.101 49.1903C119.117 49.2875 119.13 49.3806 119.138 49.4778C119.15 49.5952 119.162 49.7166 119.166 49.8381C119.17 49.9437 119.175 50.053 119.175 50.1623Z" fill="white"/>
<path d="M49.7102 62.6129C49.7102 66.2648 46.7505 69.229 43.0941 69.229C39.4418 69.229 36.478 66.2652 36.478 62.6129C36.478 61.2644 36.8829 60.0094 37.5755 58.9646C38.7576 57.1748 40.7902 55.9968 43.0941 55.9968C44.6774 55.9968 46.1267 56.5514 47.2646 57.4744C48.7588 58.6852 49.7102 60.5398 49.7102 62.6129Z" fill="#00033E"/>
<path d="M46.6551 62.6116C46.6551 64.5779 45.0613 66.1717 43.095 66.1717C41.1292 66.1717 39.5354 64.5779 39.5354 62.6116C39.5354 60.6454 41.1292 59.0516 43.095 59.0516C45.0613 59.0516 46.6551 60.6454 46.6551 62.6116Z" fill="#ABD4FF"/>
<path d="M105.124 62.6126C105.124 66.2646 102.16 69.2287 98.5082 69.2287C94.8518 69.2287 91.8921 66.265 91.8921 62.6126C91.8921 58.9562 94.8518 55.9966 98.5082 55.9966C102.16 55.9966 105.124 58.9562 105.124 62.6126Z" fill="#00033E"/>
<path d="M98.5085 66.1716C100.475 66.1716 102.069 64.5777 102.069 62.6116C102.069 60.6454 100.475 59.0515 98.5085 59.0515C96.5424 59.0515 94.9485 60.6454 94.9485 62.6116C94.9485 64.5777 96.5424 66.1716 98.5085 66.1716Z" fill="#ABD4FF"/>
<path d="M27.939 46.3639C27.939 48.4613 25.7728 48.7528 24.9834 48.7892L25.1696 43.6026C26.0643 43.7888 27.939 44.4122 27.939 46.3639Z" fill="#F83636"/>
<path d="M119.174 50.1621V51.0851C113.895 50.3969 114.765 45.4123 115.141 43.9387L117.251 45.5179C117.364 45.6309 117.47 45.7446 117.571 45.8661C117.656 45.9592 117.733 46.0564 117.81 46.1576C117.866 46.2304 117.919 46.2992 117.972 46.3762C118.024 46.449 118.073 46.5219 118.121 46.5988C118.223 46.7527 118.316 46.9065 118.401 47.0684C118.449 47.1615 118.498 47.2587 118.542 47.3558C118.729 47.7404 118.87 48.1453 118.976 48.5582C119 48.6634 119.024 48.7687 119.044 48.8739C119.069 48.9792 119.085 49.0845 119.101 49.1901C119.117 49.2873 119.129 49.3804 119.137 49.4775C119.15 49.5949 119.162 49.7164 119.166 49.8378C119.17 49.9435 119.174 50.0528 119.174 50.1621Z" fill="#FF9696"/>
<path d="M119.176 52.5713V53.0409H24.8301L24.9394 49.9921C25.7936 50.0771 28.9966 50.0286 29.1544 46.158H113.689C113.807 49.6602 115.342 52.3081 119.176 52.5713Z" fill="#F83636"/>
<path d="M94.4769 22.7424H25.915C25.9272 22.1757 26.0527 21.6368 26.2794 21.151H92.8855L94.4769 22.7424Z" fill="#F83636"/>
<path d="M38.6246 56.3491C38.4667 56.4544 38.3088 56.5677 38.1591 56.6851C37.2883 57.3652 36.5636 58.2198 36.0374 59.1995C35.7864 59.661 35.5836 60.1549 35.4301 60.6694H28.6804C28.2837 60.6694 27.9032 60.6127 27.5425 60.5034C25.8985 60.0136 24.7002 58.487 24.7002 56.6855L24.7123 56.3495H38.6246V56.3491Z" fill="#ABD4FF"/>
<path d="M93.8582 56.3491C93.7003 56.4544 93.5424 56.5677 93.3926 56.6851C92.1089 57.6851 91.1454 59.07 90.6637 60.6694H50.6798C50.2871 59.3614 49.5705 58.1956 48.6188 57.2681C48.4083 57.0616 48.1856 56.8673 47.9508 56.6851C47.8006 56.5677 47.6432 56.4544 47.4849 56.3491H93.8582Z" fill="#ABD4FF"/>
<path d="M119.177 56.3491V56.6851C119.177 58.8838 117.396 60.6694 115.197 60.6694H105.913C105.431 59.07 104.468 57.6855 103.18 56.6851C103.03 56.5677 102.872 56.4544 102.714 56.3491H119.177Z" fill="#ABD4FF"/>
<path d="M48.0487 32.8659C48.0487 37.5162 44.279 41.2859 39.6287 41.2859C34.9785 41.2859 31.2087 37.5162 31.2087 32.8659C31.2087 28.2157 34.9785 24.4459 39.6287 24.4459C44.279 24.4459 48.0487 28.2157 48.0487 32.8659Z" fill="#ABD4FF"/>
<path d="M44.0185 31.7847H40.7107V28.4772H38.5489V31.7847H35.2415V33.9469H38.5489V37.2543H40.7107V33.9469H44.0185V31.7847Z" fill="#F83636"/>
<path d="M96.4645 25.4424C95.9002 25.4424 95.6006 26.1091 95.9755 26.5309L107.284 39.2591C107.408 39.3987 107.586 39.4789 107.773 39.4789H108.194C108.764 39.4789 109.061 38.8004 108.675 38.3814L96.9455 25.6533C96.8216 25.5189 96.6471 25.4424 96.4645 25.4424Z" fill="#ABD4FF"/>
<path d="M95.6893 39.4804H87.4191C85.28 39.4804 83.5461 37.7465 83.5461 35.6074V29.3156C83.5461 27.1765 85.28 25.4426 87.4191 25.4426H90.0918C91.1978 25.4426 92.2507 25.9155 92.9859 26.7417L96.163 30.3135L96.9726 31.2248L98.0454 32.4316L98.5842 33.0348C100.804 35.5321 99.0312 39.4804 95.6893 39.4804Z" fill="#ABD4FF"/>
<path d="M81.6539 32.4615C81.6539 36.3381 78.5113 39.4803 74.6351 39.4803H58.4432C54.5666 39.4803 51.4243 36.3377 51.4243 32.4615C51.4243 28.5848 54.567 25.4426 58.4432 25.4426H74.6351C78.5113 25.4422 81.6539 28.5848 81.6539 32.4615Z" fill="#ABD4FF"/>
<path d="M71.0888 49.0616H69.4444V47.4172H68.3696V49.0616H66.7256V50.1364H68.3696V51.7808H69.4444V50.1364H71.0888V49.0616Z" fill="white"/>
<path d="M80.4205 49.0616H78.7757V47.4172H77.7013V49.0616H76.0569V50.1364H77.7013V51.7808H78.7757V50.1364H80.4205V49.0616Z" fill="white"/>
<path d="M53.6881 49.0616H52.0437V47.4172H50.9689V49.0616H49.3245V50.1364H50.9689V51.7808H52.0437V50.1364H53.6881V49.0616Z" fill="white"/>
<path d="M62.3905 49.0616H60.7461V47.4172H59.6713V49.0616H58.0269V50.1364H59.6713V51.7808H60.7461V50.1364H62.3905V49.0616Z" fill="white"/>
<path d="M36.2188 49.0616H34.5744V47.4172H33.4996V49.0616H31.8552V50.1364H33.4996V51.7808H34.5744V50.1364H36.2188V49.0616Z" fill="white"/>
<path d="M45.5507 49.0616H43.9063V47.4172H42.8315V49.0616H41.1875V50.1364H42.8315V51.7808H43.9063V50.1364H45.5507V49.0616Z" fill="white"/>
<path d="M90.3458 49.0616H88.7014V47.4172H87.6266V49.0616H85.9822V50.1364H87.6266V51.7808H88.7014V50.1364H90.3458V49.0616Z" fill="white"/>
<path d="M100.06 49.0616H98.4153V47.4172H97.3404V49.0616H95.696V50.1364H97.3404V51.7808H98.4153V50.1364H100.06V49.0616Z" fill="white"/>
<path d="M109.685 49.0616H108.041V47.4172H106.966V49.0616H105.322V50.1364H106.966V51.7808H108.041V50.1364H109.685V49.0616Z" fill="white"/>
<path d="M118.61 69.2036H9.82446V71H118.61V69.2036Z" fill="#293F60"/>
<path d="M40.3316 69.9694L16.1279 69.9551C13.217 69.9537 10.858 67.6349 10.8586 64.7758L10.87 5.17744C10.8706 2.31676 13.2327 -0.00165364 16.1453 8.85013e-07L40.349 0.0140645C43.2599 0.0159259 45.6186 2.33434 45.4176 5.19357L45.4062 64.792C45.6064 67.6529 43.2444 69.9713 40.3316 69.9694Z" fill="#263238"/>
<path d="M40.3624 1.72009L35.6698 1.7174C35.0404 1.71719 34.53 2.25016 34.5302 2.90804L34.5298 3.75929C34.5298 4.41718 34.0194 4.95035 33.3902 4.94994L24.2432 4.94456C23.6138 4.94435 23.1038 4.41056 23.1038 3.75268L23.104 2.90142C23.104 2.24354 22.594 1.70995 21.9647 1.70954L20.3143 1.70851L16.2071 1.70602C14.1673 1.70499 12.513 3.35787 12.5126 5.39769L12.501 64.6247C12.5006 66.6637 14.1524 68.3167 16.1912 68.318L40.3465 68.332C42.3861 68.3333 44.0404 66.6802 44.0411 64.6404L44.0526 5.4132C44.0531 3.37441 42.4012 1.72133 40.3624 1.72009Z" fill="#FF725E"/>
<path d="M41.7423 8.53758C41.7425 8.55454 41.0913 8.57357 40.2882 8.58019C39.4847 8.5868 38.8335 8.57853 38.8333 8.56157C38.833 8.54461 39.4841 8.52559 40.2876 8.51876C41.0909 8.51214 41.7423 8.52062 41.7423 8.53758Z" fill="white"/>
<path d="M41.7487 9.28191C41.7489 9.29887 41.0976 9.3179 40.2946 9.32451C39.4911 9.33113 38.8398 9.32286 38.8396 9.3059C38.8394 9.28894 39.4904 9.26991 40.2939 9.2633C41.0972 9.25668 41.7485 9.26495 41.7487 9.28191Z" fill="white"/>
<path d="M41.7548 10.0262C41.755 10.0432 41.1037 10.0622 40.3007 10.0688C39.4972 10.0755 38.8459 10.0672 38.8457 10.0502C38.8455 10.0333 39.4966 10.0142 40.3 10.0074C41.1033 10.0008 41.7546 10.0093 41.7548 10.0262Z" fill="white"/>
<path d="M15.2898 10.9C15.2909 10.8988 15.3117 10.8976 15.3504 10.8961C15.398 10.8945 15.4534 10.8926 15.5186 10.8905C15.6772 10.8868 15.8848 10.8818 16.1396 10.8758L16.1225 10.8932C16.1202 10.7555 16.1179 10.6051 16.1152 10.4428C16.1161 10.359 16.108 10.2802 16.1163 10.1834C16.133 10.087 16.219 10.0018 16.3247 9.99191C16.4248 9.99005 16.5129 9.9855 16.6215 9.99047C16.7334 10.0041 16.8285 10.1119 16.8252 10.2304C16.8275 10.4405 16.83 10.6597 16.8327 10.8872L16.8039 10.8589C17.0554 10.8564 17.3174 10.8537 17.5875 10.8508L17.5578 10.881C17.5551 10.5654 17.552 10.2391 17.5491 9.90464C17.5485 9.82129 17.5476 9.73836 17.547 9.65604C17.5466 9.57931 17.5001 9.52803 17.4368 9.47094C17.3208 9.35678 17.2066 9.24407 17.0943 9.13342C16.9822 9.02277 16.872 8.91399 16.7638 8.80727C16.7098 8.75412 16.6565 8.70117 16.6037 8.64906C16.5487 8.59591 16.5055 8.5411 16.4416 8.52807C16.3797 8.51152 16.3115 8.52455 16.2619 8.5624C16.2145 8.60252 16.1638 8.65919 16.116 8.70593C16.0197 8.80334 15.9258 8.89786 15.835 8.98948C15.6582 9.17313 15.4739 9.34106 15.3401 9.49948C15.2836 9.58717 15.3047 9.69431 15.3006 9.79192C15.3004 9.88892 15.3002 9.98116 15.3 10.068C15.2989 10.2372 15.2981 10.3857 15.2973 10.5127C15.296 10.6262 15.295 10.7201 15.2942 10.797C15.2925 10.8632 15.2913 10.8986 15.2898 10.9C15.2884 10.9015 15.2865 10.8692 15.2844 10.8057C15.2824 10.73 15.2797 10.6376 15.2766 10.5257C15.2737 10.3977 15.2704 10.2482 15.2664 10.0773C15.2648 9.98881 15.2631 9.89492 15.2613 9.79585C15.2605 9.7458 15.2596 9.6943 15.2588 9.64177C15.2584 9.58614 15.2727 9.52864 15.302 9.47777C15.447 9.30011 15.6199 9.14293 15.7982 8.9539C15.8883 8.86146 15.9814 8.76611 16.0772 8.66808C16.1274 8.61886 16.1686 8.56964 16.2284 8.51835C16.291 8.47016 16.3771 8.45279 16.4556 8.47368C16.539 8.49208 16.5932 8.56033 16.6438 8.60811C16.697 8.66002 16.7506 8.71255 16.8047 8.7657C16.9131 8.872 17.0238 8.98038 17.1363 9.09061C17.2488 9.20125 17.3634 9.31356 17.4796 9.42751C17.5071 9.45667 17.5402 9.48128 17.5671 9.52223C17.5923 9.56132 17.607 9.60744 17.6082 9.65439C17.6091 9.73712 17.6097 9.82046 17.6105 9.90422C17.613 10.2386 17.6155 10.565 17.6179 10.8806L17.6182 10.9108L17.5882 10.911C17.3183 10.9127 17.0562 10.9143 16.8045 10.916L16.7758 10.9162L16.7756 10.8876C16.7743 10.6601 16.7733 10.4407 16.7721 10.2308C16.7754 10.1361 16.7018 10.0525 16.6139 10.0405C16.5237 10.0358 16.4174 10.0389 16.3297 10.0397C16.2455 10.0467 16.1752 10.1143 16.1607 10.1921C16.1533 10.2709 16.1591 10.3627 16.1574 10.4426C16.1574 10.6049 16.1576 10.7553 16.1576 10.893V10.9106L16.1405 10.9104C15.8813 10.9085 15.6704 10.9071 15.5088 10.906C15.4449 10.905 15.391 10.904 15.3444 10.9031C15.3072 10.9023 15.2888 10.9013 15.2898 10.9Z" fill="white"/>
<path d="M29.7415 59.9316C32.2262 59.9316 34.2404 57.9174 34.2404 55.4327C34.2404 52.9481 32.2262 50.9339 29.7415 50.9339C27.2569 50.9339 25.2427 52.9481 25.2427 55.4327C25.2427 57.9174 27.2569 59.9316 29.7415 59.9316Z" fill="white"/>
<path d="M26.9821 56.4681L28.1055 56.2037C28.2443 56.1711 28.3421 56.0474 28.3421 55.9049V55.6733C28.3421 55.6733 28.2937 55.2801 28.665 55.2555C28.931 55.2379 30.6211 55.2555 30.6211 55.2555C30.6211 55.2555 31.0657 55.247 31.0578 55.5974V55.9338C31.0578 56.0497 31.1337 56.1518 31.2446 56.1855L32.4632 56.5539C32.5924 56.593 32.7304 56.5276 32.7821 56.4029L32.9376 56.0273C32.9661 55.9582 32.9802 55.8846 32.9763 55.8102C32.9688 55.6631 32.912 55.4331 32.767 55.2472C32.5254 54.9376 31.3867 54.2055 29.2147 54.3108C27.1465 54.4111 26.6955 55.283 26.577 55.4913C26.5031 55.6207 26.481 55.9378 26.5383 56.0722C26.5596 56.1218 26.5943 56.2052 26.6285 56.2871C26.6862 56.4259 26.8359 56.5026 26.9821 56.4681Z" fill="#FF725E"/>
<g opacity="0.2">
<path d="M29.7416 44.1339C31.4625 44.1339 32.8575 42.7389 32.8575 41.0181C32.8575 39.2972 31.4625 37.9022 29.7416 37.9022C28.0208 37.9022 26.6257 39.2972 26.6257 41.0181C26.6257 42.7389 28.0208 44.1339 29.7416 44.1339Z" fill="white"/>
</g>
<path d="M28.8899 41.3847C29.0901 41.3847 29.2524 41.2224 29.2524 41.0222C29.2524 40.822 29.0901 40.6597 28.8899 40.6597C28.6897 40.6597 28.5273 40.822 28.5273 41.0222C28.5273 41.2224 28.6897 41.3847 28.8899 41.3847Z" fill="white"/>
<path d="M30.104 41.0222C30.104 41.2224 29.9417 41.3847 29.7415 41.3847C29.5413 41.3847 29.3789 41.2224 29.3789 41.0222C29.3789 40.822 29.5413 40.6597 29.7415 40.6597C29.9417 40.6597 30.104 40.822 30.104 41.0222Z" fill="white"/>
<path d="M30.9558 41.0222C30.9558 41.2224 30.7935 41.3847 30.5933 41.3847C30.3931 41.3847 30.2307 41.2224 30.2307 41.0222C30.2307 40.822 30.3931 40.6597 30.5933 40.6597C30.7935 40.6597 30.9558 40.822 30.9558 41.0222Z" fill="white"/>
<path d="M29.2524 40.1573C29.2524 40.3575 29.0901 40.5198 28.8899 40.5198C28.6897 40.5198 28.5273 40.3575 28.5273 40.1573C28.5273 39.9571 28.6897 39.7947 28.8899 39.7947C29.0901 39.7947 29.2524 39.9571 29.2524 40.1573Z" fill="white"/>
<path d="M30.104 40.1573C30.104 40.3575 29.9417 40.5198 29.7415 40.5198C29.5413 40.5198 29.3789 40.3575 29.3789 40.1573C29.3789 39.9571 29.5413 39.7947 29.7415 39.7947C29.9417 39.7947 30.104 39.9571 30.104 40.1573Z" fill="white"/>
<path d="M30.9558 40.1573C30.9558 40.3575 30.7935 40.5198 30.5933 40.5198C30.3931 40.5198 30.2307 40.3575 30.2307 40.1573C30.2307 39.9571 30.3931 39.7947 30.5933 39.7947C30.7935 39.7947 30.9558 39.9571 30.9558 40.1573Z" fill="white"/>
<path d="M29.2524 41.8786C29.2524 42.0788 29.0901 42.2412 28.8899 42.2412C28.6897 42.2412 28.5273 42.0788 28.5273 41.8786C28.5273 41.6784 28.6897 41.5161 28.8899 41.5161C29.0901 41.5161 29.2524 41.6784 29.2524 41.8786Z" fill="white"/>
<path d="M30.104 41.8786C30.104 42.0788 29.9417 42.2412 29.7415 42.2412C29.5413 42.2412 29.3789 42.0788 29.3789 41.8786C29.3789 41.6784 29.5413 41.5161 29.7415 41.5161C29.9417 41.5161 30.104 41.6784 30.104 41.8786Z" fill="white"/>
<path d="M30.9558 41.8786C30.9558 42.0788 30.7935 42.2412 30.5933 42.2412C30.3931 42.2412 30.2307 42.0788 30.2307 41.8786C30.2307 41.6784 30.3931 41.5161 30.5933 41.5161C30.7935 41.5161 30.9558 41.6784 30.9558 41.8786Z" fill="white"/>
<g opacity="0.2">
<path d="M20.7953 44.1339C22.5162 44.1339 23.9112 42.7389 23.9112 41.0181C23.9112 39.2972 22.5162 37.9022 20.7953 37.9022C19.0745 37.9022 17.6794 39.2972 17.6794 41.0181C17.6794 42.7389 19.0745 44.1339 20.7953 44.1339Z" fill="white"/>
</g>
<path d="M19.3325 40.6108V41.349C19.3325 41.3802 19.358 41.4056 19.3892 41.4056H19.7962C19.8088 41.4056 19.8212 41.4098 19.8312 41.4176L20.4659 41.9138C20.5031 41.9429 20.5575 41.9162 20.5575 41.8691V40.1451C20.5575 40.099 20.5052 40.0721 20.4677 40.099L19.8529 40.5409C19.8434 40.5477 19.8318 40.5515 19.82 40.5515L19.3888 40.554C19.3578 40.5542 19.3325 40.5796 19.3325 40.6108Z" fill="white"/>
<path d="M21.7377 42.2639C21.7207 42.2639 21.7036 42.2579 21.6901 42.2457C21.6608 42.2194 21.6583 42.1742 21.6845 42.1448C22.0394 41.7489 22.2076 41.3397 22.1846 40.9287C22.1501 40.3132 21.6949 39.9008 21.6903 39.8967C21.6608 39.8704 21.6581 39.8253 21.6843 39.796C21.7106 39.7666 21.7555 39.7637 21.785 39.7902C21.8057 39.8086 22.2893 40.2466 22.3271 40.9206C22.3523 41.3711 22.172 41.8151 21.7908 42.2403C21.7768 42.2559 21.7573 42.2639 21.7377 42.2639Z" fill="white"/>
<path d="M21.3442 41.9154C21.3252 41.9154 21.3062 41.9078 21.2921 41.8929C21.2652 41.8641 21.2667 41.8191 21.2952 41.792C21.5469 41.556 21.6749 41.2989 21.6752 41.0278C21.6758 40.5624 21.2992 40.2024 21.2952 40.1989C21.2665 40.1718 21.265 40.1267 21.2921 40.0979C21.3194 40.0692 21.3647 40.0677 21.3931 40.0946C21.4104 40.1108 21.8181 40.4989 21.8181 41.0267C21.8181 41.3392 21.6752 41.6317 21.3931 41.896C21.3792 41.909 21.3618 41.9154 21.3442 41.9154Z" fill="white"/>
<path d="M20.9959 41.5558C20.9775 41.5558 20.959 41.5487 20.9452 41.5347C20.9175 41.5065 20.9177 41.4615 20.9458 41.4335C21.3845 40.9988 20.9607 40.507 20.9425 40.4863C20.9164 40.4568 20.9193 40.4117 20.9489 40.3856C20.9785 40.3595 21.0236 40.3622 21.0494 40.3916C21.0548 40.3978 21.5816 41.0046 21.0463 41.5351C21.0323 41.5489 21.0141 41.5558 20.9959 41.5558Z" fill="white"/>
<g opacity="0.2">
<path d="M37.9218 44.1339C39.6427 44.1339 41.0377 42.7389 41.0377 41.0181C41.0377 39.2972 39.6427 37.9022 37.9218 37.9022C36.2009 37.9022 34.8059 39.2972 34.8059 41.0181C34.8059 42.7389 36.2009 44.1339 37.9218 44.1339Z" fill="white"/>
</g>
<path d="M37.9405 42.0958C37.888 42.0958 37.8457 42.0532 37.8457 42.0006V40.0355C37.8457 39.9827 37.8882 39.9403 37.9405 39.9403C37.9929 39.9403 38.0354 39.9829 38.0354 40.0355V42.0006C38.0356 42.0532 37.9931 42.0958 37.9405 42.0958Z" fill="white"/>
<path d="M38.8749 41.1132H36.9689C36.9164 41.1132 36.8738 41.0706 36.8738 41.018C36.8738 40.9655 36.9164 40.9229 36.9689 40.9229H38.8749C38.9277 40.9229 38.9701 40.9655 38.9701 41.018C38.9703 41.0706 38.9277 41.1132 38.8749 41.1132Z" fill="white"/>
<path d="M25.8622 20.0078C26.7143 20.9269 27.1405 22.2487 27.1405 23.9737C27.1405 25.1958 26.912 26.2431 26.4553 27.1157C25.9983 27.9884 25.354 28.6506 24.5224 29.1023C23.6908 29.5542 22.7306 29.7799 21.6423 29.7799C21.0671 29.7799 20.5181 29.7155 19.9944 29.5873C19.4707 29.4591 19.024 29.2769 18.6544 29.0407L19.5785 27.2079C20.1021 27.5673 20.7745 27.7471 21.596 27.7471C22.5097 27.7471 23.2335 27.4776 23.7675 26.9384C24.3013 26.3995 24.5888 25.6216 24.63 24.6051C23.983 25.252 23.0898 25.5753 21.9503 25.5753C21.2622 25.5753 20.6359 25.4367 20.0713 25.1594C19.5065 24.8823 19.0598 24.4895 18.7314 23.9812C18.4025 23.473 18.2385 22.8852 18.2385 22.2178C18.2385 21.4992 18.418 20.8677 18.7777 20.3234C19.1369 19.7793 19.6271 19.3609 20.2486 19.0682C20.8696 18.7756 21.56 18.6292 22.32 18.6292C23.8292 18.6294 25.0099 19.0889 25.8622 20.0078ZM23.8368 23.2573C24.1808 22.9545 24.3528 22.5669 24.3528 22.0944C24.3528 21.6222 24.1857 21.2371 23.8523 20.9393C23.5185 20.6417 23.0592 20.4926 22.4739 20.4926C21.9399 20.4926 21.506 20.6365 21.1726 20.9238C20.8388 21.2113 20.6721 21.6013 20.6721 22.0942C20.6721 22.587 20.839 22.9798 21.1726 23.2724C21.5062 23.565 21.9505 23.7113 22.5047 23.7113C23.0489 23.7117 23.4929 23.5603 23.8368 23.2573Z" fill="white"/>
<path d="M32.4077 18.8141V29.595H29.9127V20.8162H27.7566V18.8141H32.4077Z" fill="white"/>
<path d="M38.4448 18.8141V29.595H35.9498V20.8162H33.7937V18.8141H38.4448Z" fill="white"/>
<path d="M19.0439 33.9416V34.3056H17.707V32.6403H19.0131V33.0043H18.1732V33.285H18.913V33.6372H18.1732V33.9416H19.0439Z" fill="white"/>
<path d="M20.809 34.3056L20.8043 33.4229L20.3761 34.1414H20.1668L19.741 33.4467V34.3054H19.3057V32.6401H19.6934L20.2787 33.6012L20.8495 32.6401H21.2373L21.2421 34.3054L20.809 34.3056Z" fill="white"/>
<path d="M22.9121 33.9416V34.3056H21.5752V32.6403H22.8812V33.0043H22.0414V33.285H22.7811V33.6372H22.0414V33.9416H22.9121Z" fill="white"/>
<path d="M23.9016 33.863H23.6447V34.3056H23.1738V32.6403H23.9351C24.0859 32.6403 24.2166 32.6654 24.3277 32.7152C24.4387 32.7653 24.5243 32.8366 24.5845 32.9293C24.6447 33.0221 24.6749 33.1311 24.6749 33.2562C24.6749 33.3768 24.6468 33.4819 24.5905 33.5714C24.5341 33.661 24.4536 33.7311 24.349 33.782L24.7082 34.3052H24.204L23.9016 33.863ZM24.1252 33.0757C24.076 33.0329 24.003 33.0114 23.9062 33.0114H23.6445V33.499H23.9062C24.003 33.499 24.076 33.4779 24.1252 33.436C24.1742 33.394 24.1988 33.334 24.1988 33.2562C24.199 33.1789 24.1742 33.1185 24.1252 33.0757Z" fill="white"/>
<path d="M26.0496 33.4374H26.4659V34.1271C26.3708 34.1954 26.2614 34.2477 26.1377 34.2841C26.014 34.3205 25.8904 34.3389 25.7667 34.3389C25.5921 34.3389 25.4352 34.3021 25.2958 34.2283C25.1562 34.1546 25.0468 34.0519 24.9676 33.9203C24.8881 33.7886 24.8486 33.6397 24.8486 33.473C24.8486 33.3065 24.8881 33.1574 24.9676 33.0256C25.0468 32.8941 25.157 32.7913 25.2983 32.7177C25.4395 32.6439 25.5988 32.607 25.7764 32.607C25.9317 32.607 26.0713 32.6333 26.1952 32.6856C26.3189 32.738 26.4221 32.8132 26.5044 32.9117L26.2047 33.1828C26.092 33.0591 25.9574 32.9973 25.8004 32.9973C25.6577 32.9973 25.5425 33.0405 25.4554 33.127C25.3682 33.2134 25.3245 33.3288 25.3245 33.473C25.3245 33.565 25.3444 33.6471 25.3841 33.7191C25.4238 33.7913 25.4792 33.8475 25.5506 33.8881C25.6219 33.9284 25.7036 33.9487 25.7956 33.9487C25.886 33.9487 25.9708 33.9305 26.05 33.8941V33.4374H26.0496Z" fill="white"/>
<path d="M28.1027 33.9416V34.3056H26.7659V32.6403H28.0719V33.0043H27.2322V33.285H27.972V33.6372H27.2322V33.9416H28.1027Z" fill="white"/>
<path d="M29.9485 32.6403V34.3056H29.5607L28.8257 33.4184V34.3056H28.3643V32.6403H28.752L29.4871 33.5278V32.6403H29.9485Z" fill="white"/>
<path d="M30.6419 34.2283C30.5031 34.1546 30.3941 34.0519 30.3147 33.9203C30.2353 33.7886 30.1958 33.6397 30.1958 33.473C30.1958 33.3065 30.2353 33.1574 30.3147 33.0256C30.3939 32.8941 30.5029 32.7913 30.6419 32.7177C30.7807 32.6439 30.9372 32.607 31.1118 32.607C31.264 32.607 31.4011 32.6341 31.5234 32.6879C31.6454 32.7419 31.7469 32.8196 31.8278 32.921L31.5281 33.1921C31.4204 33.0622 31.2894 32.9971 31.1356 32.9971C31.0452 32.9971 30.9645 33.0169 30.8942 33.0567C30.8237 33.0962 30.7689 33.1522 30.73 33.2244C30.6911 33.2966 30.6717 33.3795 30.6717 33.473C30.6717 33.5667 30.6911 33.6494 30.73 33.7216C30.7689 33.7938 30.8237 33.8496 30.8942 33.8893C30.9647 33.9288 31.0452 33.9487 31.1356 33.9487C31.2894 33.9487 31.4204 33.8837 31.5281 33.7536L31.8278 34.0248C31.7469 34.1263 31.6454 34.2041 31.5234 34.2578C31.4011 34.3118 31.264 34.3387 31.1118 34.3387C30.9374 34.3389 30.7807 34.3021 30.6419 34.2283Z" fill="white"/>
<path d="M32.922 33.7085V34.3056H32.4511V33.7015L31.8159 32.6405H32.3131L32.7081 33.3019L33.1029 32.6405H33.5596L32.922 33.7085Z" fill="white"/>
<path d="M34.7311 34.2283C34.5923 34.1546 34.4833 34.0519 34.4041 33.9203C34.3247 33.7886 34.2852 33.6397 34.2852 33.473C34.2852 33.3065 34.3247 33.1574 34.4041 33.0256C34.4833 32.8941 34.5923 32.7913 34.7311 32.7177C34.8698 32.6439 35.0264 32.607 35.2007 32.607C35.3529 32.607 35.4901 32.6341 35.6123 32.6879C35.7343 32.7419 35.8359 32.8196 35.9167 32.921L35.6171 33.1921C35.5093 33.0622 35.3784 32.9971 35.2245 32.9971C35.1341 32.9971 35.0535 33.0169 34.9832 33.0567C34.9126 33.0962 34.8578 33.1522 34.819 33.2244C34.7801 33.2966 34.7606 33.3795 34.7606 33.473C34.7606 33.5667 34.7801 33.6494 34.819 33.7216C34.8578 33.7938 34.9126 33.8496 34.9832 33.8893C35.0537 33.9288 35.1341 33.9487 35.2245 33.9487C35.3784 33.9487 35.5091 33.8837 35.6171 33.7536L35.9167 34.0248C35.8359 34.1263 35.7343 34.2041 35.6123 34.2578C35.4901 34.3118 35.3529 34.3387 35.2007 34.3387C35.0266 34.3389 34.8698 34.3021 34.7311 34.2283Z" fill="white"/>
<path d="M37.2135 33.982H36.5093L36.3786 34.3054H35.8979L36.633 32.6401H37.0969L37.8342 34.3054H37.3442L37.2135 33.982ZM37.0756 33.6347L36.8615 33.1017L36.6474 33.6347H37.0756Z" fill="white"/>
<path d="M37.9675 32.6403H38.4384V33.9321H39.233V34.3056H37.9675V32.6403Z" fill="white"/>
<path d="M39.4187 32.6403H39.8896V33.9321H40.6842V34.3056H39.4187V32.6403Z" fill="white"/>
</svg>
