<svg width="173" height="62" viewBox="0 0 173 62" fill="none" xmlns="http://www.w3.org/2000/svg">
<g clip-path="url(#clip0_109_1112)">
<mask id="mask0_109_1112" style="mask-type:luminance" maskUnits="userSpaceOnUse" x="0" y="0" width="39" height="48">
<path d="M38.1525 0H0V48H38.1525V0Z" fill="white"/>
</mask>
<g mask="url(#mask0_109_1112)">
<path d="M19.0233 20.7718C19.0233 20.9972 18.0841 22.8557 17.9196 23.3293C16.2413 28.1345 16.7273 33.4153 19.0233 37.9202C18.3787 39.2363 17.481 40.4469 16.5069 41.5374C15.2631 42.93 13.3338 44.9311 11.9356 46.1334C5.15257 51.973 -4.19831 42.901 2.06795 35.6958C3.98923 33.4878 6.4827 31.5592 8.34226 29.2931L8.24146 29.0822L1.60658 22.4251C-3.10474 16.4676 3.37972 8.13429 10.2883 11.4245C11.8635 12.1758 15.4382 15.9172 16.713 17.3615C17.1433 17.8478 19.0233 20.2895 19.0233 20.7718Z" fill="#88B9FF"/>
<path d="M19.127 37.9183C21.4436 33.3844 21.9213 28.1697 20.2306 23.3274C20.0742 22.8825 19.127 20.9538 19.127 20.7698C19.127 20.2628 21.042 17.8085 21.4867 17.3058C22.9426 15.669 26.4104 12.004 28.3027 11.2466C35.1805 8.49254 41.0945 16.6683 36.5417 22.4232L29.9068 29.0802L29.806 29.2911C31.6879 31.5696 34.1283 33.4652 36.0803 35.6939C42.3279 42.8246 33.0881 51.9751 26.2126 46.1314C24.8268 44.9538 22.8725 42.9114 21.6412 41.5355C20.6653 40.445 19.7632 39.2427 19.125 37.9183H19.127Z" fill="#FF9696"/>
<path d="M18.4891 0.0392877C27.0923 -0.82155 28.1695 12.571 19.3828 13.0223C11.2449 13.4422 10.1493 0.873111 18.4891 0.0392877Z" fill="#989CEF"/>
<path d="M19.1264 37.9184H19.0233C16.7274 33.4155 16.2413 28.1347 17.9197 23.3275C18.0842 22.8538 19.0233 20.9953 19.0233 20.77H19.1264C19.1264 20.9539 20.0755 22.8806 20.23 23.3275C21.9207 28.1698 21.443 33.3825 19.1264 37.9184Z" fill="#635274"/>
</g>
<path d="M49.4413 34.1384C49.1898 33.5256 49.0781 33.0054 49.0781 32.3644C49.0781 31.1012 49.8794 30.3025 51.1188 30.3025C52.2276 30.3025 52.8707 30.8227 53.2155 32.0207C53.6069 33.4325 54.5853 34.2129 55.9832 34.2129C57.8189 34.2129 58.816 33.0795 58.816 30.9713V18.6643C58.816 17.2062 59.6362 16.3701 61.0152 16.3701C62.3944 16.3701 63.2147 17.2154 63.2147 18.6643V30.9992C63.2147 35.4666 60.5309 37.9931 56.0205 37.9931C52.852 37.9931 50.42 36.5534 49.4229 34.1384H49.4413Z" fill="white"/>
<path d="M66.4492 17.9209C66.4492 16.6856 67.4371 15.729 68.7228 15.729C70.0092 15.729 70.9967 16.6856 70.9967 17.9209C70.9967 19.1563 70.0092 20.1128 68.7228 20.1128C67.4371 20.1128 66.4492 19.1376 66.4492 17.9209ZM66.5982 35.7358V23.9583C66.5982 22.5743 67.3998 21.729 68.7324 21.729C70.0648 21.729 70.8664 22.5743 70.8664 23.9583V35.7358C70.8664 37.1197 70.0463 37.9464 68.7324 37.9464C67.4185 37.9464 66.5982 37.1197 66.5982 35.7358Z" fill="white"/>
<path d="M77.1721 35.7824L73.1003 24.9059C72.97 24.5251 72.8672 24.0793 72.8672 23.6427C72.8672 22.491 73.7895 21.7388 75.0011 21.7388C76.0352 21.7388 76.725 22.2867 77.0418 23.4384L80.2098 33.8969H80.2942L83.4622 23.4013C83.7515 22.2775 84.4688 21.748 85.4569 21.748C86.6404 21.748 87.5257 22.5655 87.5257 23.6427C87.5257 24.0328 87.4228 24.4694 87.2926 24.8318L83.2201 35.7916C82.6798 37.2871 81.7945 37.9559 80.2475 37.9559C78.6169 37.9559 77.7406 37.3057 77.1721 35.7916V35.7824Z" fill="white"/>
<path d="M88.4414 29.8375C88.4414 24.7941 91.5072 21.7197 96.1852 21.7197C100.863 21.7197 103.929 24.7756 103.929 29.8375C103.929 34.8996 100.91 37.9834 96.1852 37.9834C91.4606 37.9834 88.4414 34.9554 88.4414 29.8375ZM99.6048 29.8469C99.6048 26.754 98.2629 24.9613 96.1941 24.9613C94.1253 24.9613 92.7648 26.754 92.7648 29.8469C92.7648 32.9399 94.0883 34.7326 96.1941 34.7326C98.3006 34.7326 99.6048 32.977 99.6048 29.8469Z" fill="white"/>
<path d="M110.203 27.144C110.203 20.3823 114.071 16.2954 120.127 16.2954C124.07 16.2954 127.117 18.0415 128.561 21.0695C128.85 21.6177 128.999 22.1934 128.999 22.7136C128.999 23.8653 128.226 24.6083 127.061 24.6083C126.073 24.6083 125.439 24.1717 124.964 23.1502C124.004 21.0137 122.28 19.9362 120.174 19.9362C116.848 19.9362 114.704 22.7136 114.704 27.1348C114.704 31.5559 116.82 34.3796 120.193 34.3796C122.41 34.3796 124.07 33.3765 125.02 31.2679C125.477 30.2835 126.026 29.884 126.959 29.884C128.198 29.884 129.018 30.6735 129.018 31.8345C129.018 32.3268 128.906 32.7913 128.682 33.302C127.368 36.2094 124.237 38.002 120.249 38.002C114.005 38.002 110.213 33.9335 110.213 27.1531L110.203 27.144Z" fill="white"/>
<path d="M131.09 33.1631C131.09 30.3302 133.28 28.6862 137.184 28.4542L141.126 28.222V27.191C141.126 25.7326 140.101 24.8968 138.498 24.8968C137.203 24.8968 136.411 25.3146 135.461 26.5408C134.994 27.0607 134.454 27.3301 133.764 27.3301C132.73 27.3301 131.984 26.6615 131.984 25.7047C131.984 25.3704 132.059 25.0637 132.199 24.7482C132.926 22.8905 135.441 21.7388 138.675 21.7388C142.691 21.7388 145.301 23.8008 145.301 26.94V35.829C145.301 37.2408 144.443 37.9651 143.232 37.9651C142.021 37.9651 141.275 37.3244 141.191 36.0704V35.2716H141.107C140.232 36.9249 138.275 37.9002 136.327 37.9002C133.354 37.9002 131.09 35.9776 131.09 33.1726V33.1631ZM141.126 31.9277V30.7947L137.827 30.9991C136.234 31.1198 135.33 31.8257 135.33 32.9309C135.33 34.092 136.29 34.8258 137.725 34.8258C139.589 34.8258 141.126 33.6184 141.126 31.9277Z" fill="white"/>
<path d="M148.05 35.7361V23.875C148.05 22.5189 148.879 21.7388 150.109 21.7388C151.34 21.7388 152.122 22.5281 152.122 23.875V24.8968H152.206C152.616 22.9647 153.902 21.813 155.458 21.813C156.027 21.813 156.483 21.9432 156.782 22.203C157.192 22.5189 157.397 23.0483 157.397 23.7729C157.397 24.4414 157.192 24.9525 156.782 25.296C156.372 25.6489 155.757 25.8349 154.927 25.8441C152.989 25.872 152.299 26.968 152.299 28.8069V35.7267C152.299 37.1385 151.47 37.9373 150.165 37.9373C148.861 37.9373 148.031 37.1385 148.031 35.7267L148.05 35.7361Z" fill="white"/>
<path d="M157.832 29.9211C157.832 24.9056 160.768 21.7197 165.389 21.7197C170.012 21.7197 172.798 24.7478 172.798 28.9738C172.798 30.1534 172.127 30.8222 170.944 30.8222H162.016V31.0079C162.016 33.3208 163.414 34.8346 165.576 34.8346C167.132 34.8346 168.158 34.3144 169.313 32.9584C169.769 32.4939 170.142 32.3361 170.702 32.3361C171.624 32.3361 172.36 32.9213 172.36 33.8965C172.36 34.2308 172.257 34.5837 172.071 34.9275C171.037 36.8501 168.614 37.9834 165.594 37.9834C160.711 37.9834 157.832 34.974 157.832 29.9303V29.9211ZM168.707 28.2213C168.623 26.1872 167.309 24.859 165.436 24.859C163.563 24.859 162.212 26.2245 162.063 28.2213H168.698H168.707Z" fill="white"/>
</g>
<path d="M51.044 59.144C50.364 59.144 49.764 58.98 49.244 58.652C48.724 58.316 48.316 57.844 48.02 57.236C47.732 56.62 47.588 55.888 47.588 55.04C47.588 54.192 47.732 53.468 48.02 52.868C48.316 52.268 48.724 51.808 49.244 51.488C49.764 51.168 50.364 51.008 51.044 51.008C51.732 51.008 52.336 51.168 52.856 51.488C53.376 51.808 53.78 52.268 54.068 52.868C54.364 53.468 54.512 54.192 54.512 55.04C54.512 55.888 54.364 56.62 54.068 57.236C53.78 57.844 53.376 58.316 52.856 58.652C52.336 58.98 51.732 59.144 51.044 59.144ZM51.044 57.932C51.66 57.932 52.152 57.672 52.52 57.152C52.888 56.624 53.072 55.92 53.072 55.04C53.072 54.16 52.888 53.472 52.52 52.976C52.152 52.472 51.66 52.22 51.044 52.22C50.428 52.22 49.936 52.472 49.568 52.976C49.2 53.472 49.016 54.16 49.016 55.04C49.016 55.92 49.2 56.624 49.568 57.152C49.936 57.672 50.428 57.932 51.044 57.932ZM55.9619 59V53.108H57.1019L57.1979 53.9H57.2459C57.5099 53.644 57.7979 53.424 58.1099 53.24C58.4219 53.056 58.7779 52.964 59.1779 52.964C59.8099 52.964 60.2699 53.168 60.5579 53.576C60.8459 53.984 60.9899 54.56 60.9899 55.304V59H59.6099V55.484C59.6099 54.996 59.5379 54.652 59.3939 54.452C59.2499 54.252 59.0139 54.152 58.6859 54.152C58.4299 54.152 58.2019 54.216 58.0019 54.344C57.8099 54.464 57.5899 54.644 57.3419 54.884V59H55.9619ZM65.1968 59.144C64.6528 59.144 64.1608 59.024 63.7208 58.784C63.2808 58.536 62.9328 58.184 62.6768 57.728C62.4208 57.264 62.2928 56.708 62.2928 56.06C62.2928 55.42 62.4208 54.868 62.6768 54.404C62.9408 53.94 63.2808 53.584 63.6968 53.336C64.1128 53.088 64.5488 52.964 65.0048 52.964C65.5408 52.964 65.9888 53.084 66.3488 53.324C66.7088 53.556 66.9808 53.884 67.1648 54.308C67.3488 54.724 67.4408 55.208 67.4408 55.76C67.4408 56.048 67.4208 56.272 67.3808 56.432H63.6368C63.7008 56.952 63.8888 57.356 64.2008 57.644C64.5128 57.932 64.9048 58.076 65.3768 58.076C65.6328 58.076 65.8688 58.04 66.0848 57.968C66.3088 57.888 66.5288 57.78 66.7448 57.644L67.2128 58.508C66.9328 58.692 66.6208 58.844 66.2768 58.964C65.9328 59.084 65.5728 59.144 65.1968 59.144ZM63.6248 55.496H66.2408C66.2408 55.04 66.1408 54.684 65.9408 54.428C65.7408 54.164 65.4408 54.032 65.0408 54.032C64.6968 54.032 64.3888 54.16 64.1168 54.416C63.8528 54.664 63.6888 55.024 63.6248 55.496ZM71.2812 59V51.152H73.7532C74.3372 51.152 74.8572 51.228 75.3132 51.38C75.7692 51.532 76.1292 51.784 76.3932 52.136C76.6572 52.488 76.7892 52.968 76.7892 53.576C76.7892 54.152 76.6572 54.628 76.3932 55.004C76.1292 55.38 75.7732 55.66 75.3252 55.844C74.8772 56.028 74.3692 56.12 73.8012 56.12H72.6732V59H71.2812ZM72.6732 55.004H73.6932C74.8452 55.004 75.4212 54.528 75.4212 53.576C75.4212 53.08 75.2692 52.74 74.9652 52.556C74.6692 52.364 74.2292 52.268 73.6452 52.268H72.6732V55.004ZM79.4895 59.144C79.0015 59.144 78.6535 58.996 78.4455 58.7C78.2455 58.404 78.1455 58 78.1455 57.488V50.528H79.5255V57.56C79.5255 57.728 79.5575 57.848 79.6215 57.92C79.6855 57.984 79.7535 58.016 79.8255 58.016C79.8575 58.016 79.8855 58.016 79.9095 58.016C79.9415 58.008 79.9855 58 80.0415 57.992L80.2215 59.024C80.1415 59.056 80.0375 59.084 79.9095 59.108C79.7895 59.132 79.6495 59.144 79.4895 59.144ZM82.8313 59.144C82.3193 59.144 81.8993 58.984 81.5713 58.664C81.2513 58.344 81.0913 57.928 81.0913 57.416C81.0913 56.784 81.3673 56.296 81.9193 55.952C82.4713 55.6 83.3513 55.36 84.5593 55.232C84.5513 54.92 84.4673 54.652 84.3073 54.428C84.1553 54.196 83.8793 54.08 83.4793 54.08C83.1913 54.08 82.9073 54.136 82.6273 54.248C82.3553 54.36 82.0873 54.496 81.8233 54.656L81.3193 53.732C81.6473 53.524 82.0153 53.344 82.4233 53.192C82.8393 53.04 83.2793 52.964 83.7433 52.964C84.4793 52.964 85.0273 53.184 85.3873 53.624C85.7553 54.056 85.9393 54.684 85.9393 55.508V59H84.7993L84.7033 58.352H84.6553C84.3913 58.576 84.1073 58.764 83.8033 58.916C83.5073 59.068 83.1833 59.144 82.8313 59.144ZM83.2753 58.064C83.5153 58.064 83.7313 58.008 83.9233 57.896C84.1233 57.776 84.3353 57.616 84.5593 57.416V56.096C83.7593 56.2 83.2033 56.356 82.8913 56.564C82.5793 56.764 82.4233 57.012 82.4233 57.308C82.4233 57.572 82.5033 57.764 82.6633 57.884C82.8233 58.004 83.0273 58.064 83.2753 58.064ZM89.4793 59.144C88.7993 59.144 88.3153 58.948 88.0273 58.556C87.7473 58.156 87.6073 57.64 87.6073 57.008V54.2H86.7673V53.168L87.6793 53.108L87.8473 51.5H88.9993V53.108H90.4993V54.2H88.9993V57.008C88.9993 57.696 89.2753 58.04 89.8273 58.04C89.9313 58.04 90.0393 58.028 90.1513 58.004C90.2633 57.972 90.3593 57.94 90.4393 57.908L90.6793 58.928C90.5193 58.984 90.3353 59.032 90.1273 59.072C89.9273 59.12 89.7113 59.144 89.4793 59.144ZM91.9793 59V54.2H91.1873V53.168L91.9793 53.108V52.496C91.9793 51.88 92.1313 51.376 92.4353 50.984C92.7393 50.584 93.2393 50.384 93.9353 50.384C94.1433 50.384 94.3433 50.404 94.5353 50.444C94.7273 50.484 94.8873 50.532 95.0153 50.588L94.7513 51.62C94.5353 51.524 94.3193 51.476 94.1033 51.476C93.6073 51.476 93.3593 51.808 93.3593 52.472V53.108H94.5113V54.2H93.3593V59H91.9793ZM97.8427 59.144C97.3547 59.144 96.8987 59.024 96.4747 58.784C96.0507 58.536 95.7067 58.184 95.4427 57.728C95.1787 57.264 95.0467 56.708 95.0467 56.06C95.0467 55.404 95.1787 54.848 95.4427 54.392C95.7067 53.928 96.0507 53.576 96.4747 53.336C96.8987 53.088 97.3547 52.964 97.8427 52.964C98.3387 52.964 98.7987 53.088 99.2227 53.336C99.6467 53.576 99.9907 53.928 100.255 54.392C100.519 54.848 100.651 55.404 100.651 56.06C100.651 56.708 100.519 57.264 100.255 57.728C99.9907 58.184 99.6467 58.536 99.2227 58.784C98.7987 59.024 98.3387 59.144 97.8427 59.144ZM97.8427 58.016C98.2747 58.016 98.6147 57.836 98.8627 57.476C99.1107 57.116 99.2347 56.644 99.2347 56.06C99.2347 55.468 99.1107 54.992 98.8627 54.632C98.6147 54.272 98.2747 54.092 97.8427 54.092C97.4107 54.092 97.0707 54.272 96.8227 54.632C96.5827 54.992 96.4627 55.468 96.4627 56.06C96.4627 56.644 96.5827 57.116 96.8227 57.476C97.0707 57.836 97.4107 58.016 97.8427 58.016ZM102.017 59V53.108H103.157L103.253 54.152H103.301C103.509 53.768 103.761 53.476 104.057 53.276C104.353 53.068 104.657 52.964 104.969 52.964C105.249 52.964 105.473 53.004 105.641 53.084L105.401 54.284C105.297 54.252 105.201 54.228 105.113 54.212C105.025 54.196 104.917 54.188 104.789 54.188C104.557 54.188 104.313 54.28 104.057 54.464C103.801 54.64 103.581 54.952 103.397 55.4V59H102.017ZM106.493 59V53.108H107.633L107.729 53.912H107.777C108.025 53.648 108.293 53.424 108.581 53.24C108.877 53.056 109.209 52.964 109.577 52.964C110.009 52.964 110.353 53.06 110.609 53.252C110.873 53.436 111.073 53.692 111.209 54.02C111.489 53.716 111.781 53.464 112.085 53.264C112.397 53.064 112.737 52.964 113.105 52.964C113.729 52.964 114.189 53.168 114.485 53.576C114.781 53.984 114.929 54.56 114.929 55.304V59H113.537V55.484C113.537 54.996 113.461 54.652 113.309 54.452C113.165 54.252 112.941 54.152 112.637 54.152C112.269 54.152 111.857 54.396 111.401 54.884V59H110.021V55.484C110.021 54.996 109.945 54.652 109.793 54.452C109.649 54.252 109.421 54.152 109.109 54.152C108.741 54.152 108.329 54.396 107.873 54.884V59H106.493ZM116.594 61.184L116.294 60.428C116.686 60.276 116.986 60.068 117.194 59.804C117.41 59.548 117.514 59.272 117.506 58.976C117.49 58.976 117.47 58.976 117.446 58.976C117.43 58.976 117.414 58.976 117.398 58.976C117.166 58.976 116.958 58.904 116.774 58.76C116.598 58.608 116.51 58.396 116.51 58.124C116.51 57.868 116.602 57.664 116.786 57.512C116.97 57.352 117.186 57.272 117.434 57.272C117.762 57.272 118.014 57.396 118.19 57.644C118.374 57.892 118.466 58.24 118.466 58.688C118.466 59.272 118.302 59.78 117.974 60.212C117.646 60.652 117.186 60.976 116.594 61.184ZM124.018 59V52.328H121.75V51.152H127.678V52.328H125.41V59H124.018ZM130.421 59.144C129.933 59.144 129.477 59.024 129.053 58.784C128.629 58.536 128.285 58.184 128.021 57.728C127.757 57.264 127.625 56.708 127.625 56.06C127.625 55.404 127.757 54.848 128.021 54.392C128.285 53.928 128.629 53.576 129.053 53.336C129.477 53.088 129.933 52.964 130.421 52.964C130.917 52.964 131.377 53.088 131.801 53.336C132.225 53.576 132.569 53.928 132.833 54.392C133.097 54.848 133.229 55.404 133.229 56.06C133.229 56.708 133.097 57.264 132.833 57.728C132.569 58.184 132.225 58.536 131.801 58.784C131.377 59.024 130.917 59.144 130.421 59.144ZM130.421 58.016C130.853 58.016 131.193 57.836 131.441 57.476C131.689 57.116 131.813 56.644 131.813 56.06C131.813 55.468 131.689 54.992 131.441 54.632C131.193 54.272 130.853 54.092 130.421 54.092C129.989 54.092 129.649 54.272 129.401 54.632C129.161 54.992 129.041 55.468 129.041 56.06C129.041 56.644 129.161 57.116 129.401 57.476C129.649 57.836 129.989 58.016 130.421 58.016ZM136.401 59.144C135.721 59.144 135.237 58.948 134.949 58.556C134.669 58.156 134.529 57.64 134.529 57.008V54.2H133.689V53.168L134.601 53.108L134.769 51.5H135.921V53.108H137.421V54.2H135.921V57.008C135.921 57.696 136.197 58.04 136.749 58.04C136.853 58.04 136.961 58.028 137.073 58.004C137.185 57.972 137.281 57.94 137.361 57.908L137.601 58.928C137.441 58.984 137.257 59.032 137.049 59.072C136.849 59.12 136.633 59.144 136.401 59.144ZM139.831 59.144C139.319 59.144 138.899 58.984 138.571 58.664C138.251 58.344 138.091 57.928 138.091 57.416C138.091 56.784 138.367 56.296 138.919 55.952C139.471 55.6 140.351 55.36 141.559 55.232C141.551 54.92 141.467 54.652 141.307 54.428C141.155 54.196 140.879 54.08 140.479 54.08C140.191 54.08 139.907 54.136 139.627 54.248C139.355 54.36 139.087 54.496 138.823 54.656L138.319 53.732C138.647 53.524 139.015 53.344 139.423 53.192C139.839 53.04 140.279 52.964 140.743 52.964C141.479 52.964 142.027 53.184 142.387 53.624C142.755 54.056 142.939 54.684 142.939 55.508V59H141.799L141.703 58.352H141.655C141.391 58.576 141.107 58.764 140.803 58.916C140.507 59.068 140.183 59.144 139.831 59.144ZM140.275 58.064C140.515 58.064 140.731 58.008 140.923 57.896C141.123 57.776 141.335 57.616 141.559 57.416V56.096C140.759 56.2 140.203 56.356 139.891 56.564C139.579 56.764 139.423 57.012 139.423 57.308C139.423 57.572 139.503 57.764 139.663 57.884C139.823 58.004 140.027 58.064 140.275 58.064ZM145.935 59.144C145.447 59.144 145.099 58.996 144.891 58.7C144.691 58.404 144.591 58 144.591 57.488V50.528H145.971V57.56C145.971 57.728 146.003 57.848 146.067 57.92C146.131 57.984 146.199 58.016 146.271 58.016C146.303 58.016 146.331 58.016 146.355 58.016C146.387 58.008 146.431 58 146.487 57.992L146.667 59.024C146.587 59.056 146.483 59.084 146.355 59.108C146.235 59.132 146.095 59.144 145.935 59.144ZM153.503 59.144C152.847 59.144 152.251 58.988 151.715 58.676C151.179 58.364 150.751 57.908 150.431 57.308C150.119 56.7 149.963 55.964 149.963 55.1C149.963 54.244 150.123 53.512 150.443 52.904C150.771 52.288 151.207 51.82 151.751 51.5C152.295 51.172 152.895 51.008 153.551 51.008C154.047 51.008 154.487 51.108 154.871 51.308C155.255 51.508 155.571 51.74 155.819 52.004L155.075 52.904C154.875 52.696 154.651 52.532 154.403 52.412C154.163 52.284 153.891 52.22 153.587 52.22C153.163 52.22 152.783 52.336 152.447 52.568C152.119 52.792 151.859 53.116 151.667 53.54C151.483 53.964 151.391 54.472 151.391 55.064C151.391 55.96 151.587 56.664 151.979 57.176C152.371 57.68 152.895 57.932 153.551 57.932C153.903 57.932 154.215 57.86 154.487 57.716C154.759 57.564 155.007 57.368 155.231 57.128L155.975 58.004C155.655 58.372 155.287 58.656 154.871 58.856C154.463 59.048 154.007 59.144 153.503 59.144ZM158.593 59.144C158.081 59.144 157.661 58.984 157.333 58.664C157.013 58.344 156.853 57.928 156.853 57.416C156.853 56.784 157.129 56.296 157.681 55.952C158.233 55.6 159.113 55.36 160.321 55.232C160.313 54.92 160.229 54.652 160.069 54.428C159.917 54.196 159.641 54.08 159.241 54.08C158.953 54.08 158.669 54.136 158.389 54.248C158.117 54.36 157.849 54.496 157.585 54.656L157.081 53.732C157.409 53.524 157.777 53.344 158.185 53.192C158.601 53.04 159.041 52.964 159.505 52.964C160.241 52.964 160.789 53.184 161.149 53.624C161.517 54.056 161.701 54.684 161.701 55.508V59H160.561L160.465 58.352H160.417C160.153 58.576 159.869 58.764 159.565 58.916C159.269 59.068 158.945 59.144 158.593 59.144ZM159.037 58.064C159.277 58.064 159.493 58.008 159.685 57.896C159.885 57.776 160.097 57.616 160.321 57.416V56.096C159.521 56.2 158.965 56.356 158.653 56.564C158.341 56.764 158.185 57.012 158.185 57.308C158.185 57.572 158.265 57.764 158.425 57.884C158.585 58.004 158.789 58.064 159.037 58.064ZM163.353 59V53.108H164.493L164.589 54.152H164.637C164.845 53.768 165.097 53.476 165.393 53.276C165.689 53.068 165.993 52.964 166.305 52.964C166.585 52.964 166.809 53.004 166.977 53.084L166.737 54.284C166.633 54.252 166.537 54.228 166.449 54.212C166.361 54.196 166.253 54.188 166.125 54.188C165.893 54.188 165.649 54.28 165.393 54.464C165.137 54.64 164.917 54.952 164.733 55.4V59H163.353ZM170.232 59.144C169.688 59.144 169.196 59.024 168.756 58.784C168.316 58.536 167.968 58.184 167.712 57.728C167.456 57.264 167.328 56.708 167.328 56.06C167.328 55.42 167.456 54.868 167.712 54.404C167.976 53.94 168.316 53.584 168.732 53.336C169.148 53.088 169.584 52.964 170.04 52.964C170.576 52.964 171.024 53.084 171.384 53.324C171.744 53.556 172.016 53.884 172.2 54.308C172.384 54.724 172.476 55.208 172.476 55.76C172.476 56.048 172.456 56.272 172.416 56.432H168.672C168.736 56.952 168.924 57.356 169.236 57.644C169.548 57.932 169.94 58.076 170.412 58.076C170.668 58.076 170.904 58.04 171.12 57.968C171.344 57.888 171.564 57.78 171.78 57.644L172.248 58.508C171.968 58.692 171.656 58.844 171.312 58.964C170.968 59.084 170.608 59.144 170.232 59.144ZM168.66 55.496H171.276C171.276 55.04 171.176 54.684 170.976 54.428C170.776 54.164 170.476 54.032 170.076 54.032C169.732 54.032 169.424 54.16 169.152 54.416C168.888 54.664 168.724 55.024 168.66 55.496Z" fill="white"/>
<defs>
<clipPath id="clip0_109_1112">
<rect width="172.8" height="48" fill="white"/>
</clipPath>
</defs>
</svg>
