<svg width="40" height="40" viewBox="0 0 40 40" fill="none" xmlns="http://www.w3.org/2000/svg">
<path d="M14.6666 33.3333V26.5L17.8333 26.8333C18.7551 26.7821 19.6276 26.3998 20.2902 25.7568C20.9528 25.1138 21.3611 24.2533 21.4399 23.3333V13.8333C21.451 11.4322 20.5077 9.12508 18.8177 7.41944C17.1277 5.7138 14.8293 4.74937 12.4283 4.73832C10.0272 4.72727 7.72002 5.6705 6.01437 7.36051C4.30873 9.05053 3.3443 11.3489 3.33325 13.75C3.33325 18.4166 4.42659 18.84 4.99992 21.3333C5.38739 22.8391 5.40398 24.4164 5.04825 25.93L3.33325 33.3333" stroke="black" stroke-width="2" stroke-linecap="round" stroke-linejoin="round"/>
<path d="M33 29.6667C35.343 27.3234 36.6597 24.1456 36.6607 20.8319C36.6616 17.5181 35.3467 14.3396 33.005 11.995" stroke="black" stroke-width="2" stroke-linecap="round" stroke-linejoin="round"/>
<path d="M28.3334 25C28.8787 24.4548 29.3105 23.8069 29.6038 23.0938C29.8971 22.3807 30.0462 21.6165 30.0423 20.8455C30.0384 20.0744 29.8817 19.3117 29.5812 18.6016C29.2808 17.8915 28.8425 17.248 28.2917 16.7083" stroke="black" stroke-width="2" stroke-linecap="round" stroke-linejoin="round"/>
</svg>
