<svg width="40" height="40" viewBox="0 0 40 40" fill="none" xmlns="http://www.w3.org/2000/svg">
<path d="M18.3333 13.3333H8.33333C6.49238 13.3333 5 14.8257 5 16.6666V33.3333C5 35.1743 6.49238 36.6666 8.33333 36.6666H18.3333C20.1743 36.6666 21.6667 35.1743 21.6667 33.3333V16.6666C21.6667 14.8257 20.1743 13.3333 18.3333 13.3333Z" stroke="black" stroke-width="2" stroke-linecap="round" stroke-linejoin="round"/>
<path d="M8.33325 6.66665C8.33325 5.78259 8.68444 4.93474 9.30956 4.30962C9.93468 3.6845 10.7825 3.33331 11.6666 3.33331H31.6666C32.5506 3.33331 33.3985 3.6845 34.0236 4.30962C34.6487 4.93474 34.9999 5.78259 34.9999 6.66665V33.3333C34.9999 34.2174 34.6487 35.0652 34.0236 35.6903C33.3985 36.3155 32.5506 36.6666 31.6666 36.6666H27.6666" stroke="black" stroke-width="2" stroke-linecap="round" stroke-linejoin="round"/>
<path d="M13.3333 30H13.3499" stroke="black" stroke-width="2" stroke-linecap="round" stroke-linejoin="round"/>
</svg>
