<svg width="40" height="40" viewBox="0 0 40 40" fill="none" xmlns="http://www.w3.org/2000/svg">
<path d="M23.3334 30V10C23.3334 9.11597 22.9822 8.26812 22.3571 7.643C21.7319 7.01788 20.8841 6.66669 20 6.66669H6.66671C5.78265 6.66669 4.93481 7.01788 4.30968 7.643C3.68456 8.26812 3.33337 9.11597 3.33337 10V28.3334C3.33337 28.7754 3.50897 29.1993 3.82153 29.5119C4.13409 29.8244 4.55801 30 5.00004 30H8.33337" stroke="black" stroke-width="2" stroke-linecap="round" stroke-linejoin="round"/>
<path d="M25 30H15" stroke="black" stroke-width="2" stroke-linecap="round" stroke-linejoin="round"/>
<path d="M31.6667 30H35C35.4421 30 35.866 29.8244 36.1786 29.5118C36.4911 29.1993 36.6667 28.7753 36.6667 28.3333V22.25C36.666 21.8718 36.5367 21.505 36.3 21.21L30.5 13.96C30.3442 13.7648 30.1464 13.6071 29.9214 13.4986C29.6964 13.3902 29.4498 13.3337 29.2 13.3333H23.3334" stroke="black" stroke-width="2" stroke-linecap="round" stroke-linejoin="round"/>
<path d="M28.3333 33.3334C30.1743 33.3334 31.6667 31.841 31.6667 30C31.6667 28.1591 30.1743 26.6667 28.3333 26.6667C26.4924 26.6667 25 28.1591 25 30C25 31.841 26.4924 33.3334 28.3333 33.3334Z" stroke="black" stroke-width="2" stroke-linecap="round" stroke-linejoin="round"/>
<path d="M11.6667 33.3334C13.5077 33.3334 15 31.841 15 30C15 28.1591 13.5077 26.6667 11.6667 26.6667C9.82576 26.6667 8.33337 28.1591 8.33337 30C8.33337 31.841 9.82576 33.3334 11.6667 33.3334Z" stroke="black" stroke-width="2" stroke-linecap="round" stroke-linejoin="round"/>
</svg>
